<svg width="20" height="20" viewBox="0 0 20 20" fill="none" xmlns="http://www.w3.org/2000/svg">
<path d="M3.33325 4.16667H11.6666M11.6666 4.16667C11.6666 5.08714 12.4128 5.83333 13.3333 5.83333C14.2537 5.83333 14.9999 5.08714 14.9999 4.16667M11.6666 4.16667C11.6666 3.24619 12.4128 2.5 13.3333 2.5C14.2537 2.5 14.9999 3.24619 14.9999 4.16667M14.9999 4.16667H16.6666M3.33325 10H4.99992M4.99992 10C4.99992 10.9205 5.74611 11.6667 6.66659 11.6667C7.58706 11.6667 8.33325 10.9205 8.33325 10M4.99992 10C4.99992 9.07953 5.74611 8.33333 6.66659 8.33333C7.58706 8.33333 8.33325 9.07953 8.33325 10M8.33325 10H16.6666M3.33325 15.8333H9.99992M9.99992 15.8333C9.99992 16.7538 10.7461 17.5 11.6666 17.5C12.5871 17.5 13.3333 16.7538 13.3333 15.8333M9.99992 15.8333C9.99992 14.9129 10.7461 14.1667 11.6666 14.1667C12.5871 14.1667 13.3333 14.9129 13.3333 15.8333M13.3333 15.8333H16.6666" stroke="black" stroke-opacity="0.9" stroke-width="1.5" stroke-linecap="round" stroke-linejoin="round"/>
</svg>
