<svg width="28" height="28" viewBox="0 0 28 28" fill="none" xmlns="http://www.w3.org/2000/svg">
<path d="M13.3637 7.53033C13.6566 7.23744 13.6566 6.76256 13.3637 6.46967C13.0708 6.17678 12.5959 6.17678 12.303 6.46967L12.8334 7L13.3637 7.53033ZM5.83337 14L5.30304 13.4697C5.16239 13.6103 5.08337 13.8011 5.08337 14C5.08337 14.1989 5.16239 14.3897 5.30304 14.5303L5.83337 14ZM12.303 21.5303C12.5959 21.8232 13.0708 21.8232 13.3637 21.5303C13.6566 21.2374 13.6566 20.7626 13.3637 20.4697L12.8334 21L12.303 21.5303ZM22.1667 14.75C22.5809 14.75 22.9167 14.4142 22.9167 14C22.9167 13.5858 22.5809 13.25 22.1667 13.25V14V14.75ZM12.8334 7L12.303 6.46967L5.30304 13.4697L5.83337 14L6.3637 14.5303L13.3637 7.53033L12.8334 7ZM5.83337 14L5.30304 14.5303L12.303 21.5303L12.8334 21L13.3637 20.4697L6.3637 13.4697L5.83337 14ZM5.83337 14V14.75H22.1667V14V13.25H5.83337V14Z" fill="black"/>
</svg>
