<svg width="24" height="24" viewBox="0 0 24 24" fill="none" xmlns="http://www.w3.org/2000/svg">
<path d="M14.7192 3.78797C14.7192 2.80966 13.913 2 12.9185 2H11.0815C10.087 2 9.28084 2.80971 9.28084 3.78803C9.28084 4.50577 8.81512 5.146 8.18381 5.5058C7.55213 5.86581 6.76345 5.93682 6.13122 5.57774C5.26967 5.0884 4.15313 5.37034 3.65571 6.21789L2.73822 7.78123C2.24059 8.62913 2.55013 9.72143 3.41204 10.211C4.04421 10.57 4.37737 11.2819 4.37737 12C4.37737 12.7181 4.04419 13.4299 3.41202 13.789C2.55009 14.2785 2.24053 15.3709 2.73816 16.2188L3.65562 17.7821C4.15304 18.6296 5.2696 18.9116 6.13117 18.4222C6.76341 18.0632 7.5521 18.1342 8.1838 18.4942C8.81511 18.854 9.28084 19.4942 9.28084 20.212C9.28084 21.1903 10.087 22 11.0815 22H12.9185C13.913 22 14.7192 21.1904 14.7192 20.212C14.7192 19.4942 15.1849 18.854 15.8163 18.4941C16.4481 18.1341 17.2368 18.063 17.8691 18.4221C18.7306 18.9114 19.8469 18.6295 20.3443 17.782L21.2619 16.2186C21.7595 15.3706 21.4498 14.2783 20.5879 13.7887C19.9558 13.4297 19.6227 12.718 19.6227 12C19.6227 11.282 19.9558 10.5702 20.5879 10.2113C21.4498 9.72172 21.7594 8.62937 21.2618 7.78146L20.3442 6.21801C19.8469 5.37052 18.7305 5.08855 17.869 5.57785C17.2367 5.93697 16.448 5.8659 15.8163 5.50584C15.1849 5.14601 14.7192 4.50577 14.7192 3.78797Z" stroke="black" stroke-width="1.5" stroke-linecap="round" stroke-linejoin="round"/>
<path d="M15.0001 12C15.0001 13.6569 13.6569 15 12.0001 15C10.3432 15 9.00006 13.6569 9.00006 12C9.00006 10.3431 10.3432 9 12.0001 9C13.6569 9 15.0001 10.3431 15.0001 12Z" stroke="black" stroke-width="1.5" stroke-linecap="round" stroke-linejoin="round"/>
</svg>
