<svg width="22" height="22" viewBox="0 0 22 22" fill="none" xmlns="http://www.w3.org/2000/svg">
<path d="M7.16634 1.83325C7.16634 1.41904 6.83055 1.08325 6.41634 1.08325C6.00213 1.08325 5.66634 1.41904 5.66634 1.83325H6.41634H7.16634ZM5.66634 5.49992C5.66634 5.91413 6.00213 6.24992 6.41634 6.24992C6.83055 6.24992 7.16634 5.91413 7.16634 5.49992H6.41634H5.66634ZM11.7497 1.83325C11.7497 1.41904 11.4139 1.08325 10.9997 1.08325C10.5855 1.08325 10.2497 1.41904 10.2497 1.83325H10.9997H11.7497ZM10.2497 5.49992C10.2497 5.91413 10.5855 6.24992 10.9997 6.24992C11.4139 6.24992 11.7497 5.91413 11.7497 5.49992H10.9997H10.2497ZM16.333 1.83325C16.333 1.41904 15.9972 1.08325 15.583 1.08325C15.1688 1.08325 14.833 1.41904 14.833 1.83325H15.583H16.333ZM14.833 5.49992C14.833 5.91413 15.1688 6.24992 15.583 6.24992C15.9972 6.24992 16.333 5.91413 16.333 5.49992H15.583H14.833ZM18.4997 17.1126C18.4997 17.5268 18.8355 17.8626 19.2497 17.8626C19.6639 17.8626 19.9997 17.5268 19.9997 17.1126H19.2497H18.4997ZM1.99967 17.1126C1.99967 17.5268 2.33546 17.8626 2.74967 17.8626C3.16389 17.8626 3.49967 17.5268 3.49967 17.1126H2.74967H1.99967ZM12.0166 9.84455L11.6006 10.4686V10.4686L12.0166 9.84455ZM14.1077 11.2386L14.5237 10.6146V10.6146L14.1077 11.2386ZM7.89162 11.2386L7.4756 10.6146V10.6146L7.89162 11.2386ZM9.98272 9.84455L9.5667 9.22051V9.22051L9.98272 9.84455ZM3.1657 8.54255C2.82105 8.31278 2.3554 8.40591 2.12564 8.75056C1.89587 9.09521 1.989 9.56086 2.33365 9.79062L2.74967 9.16659L3.1657 8.54255ZM5.85772 11.2386L6.27375 10.6146H6.27375L5.85772 11.2386ZM16.1416 11.2386L15.7256 10.6146V10.6146L16.1416 11.2386ZM19.6657 9.79062C20.0103 9.56086 20.1035 9.09521 19.8737 8.75056C19.6439 8.40591 19.1783 8.31278 18.8337 8.54255L19.2497 9.16659L19.6657 9.79062ZM6.41634 1.83325H5.66634V5.49992H6.41634H7.16634V1.83325H6.41634ZM10.9997 1.83325H10.2497V5.49992H10.9997H11.7497V1.83325H10.9997ZM15.583 1.83325H14.833V5.49992H15.583H16.333V1.83325H15.583ZM3.43717 16.9583V17.7083H18.5622V16.9583V16.2083H3.43717V16.9583ZM18.5622 20.1666V19.4166H3.43717V20.1666V20.9166H18.5622V20.1666ZM3.43717 20.1666V19.4166C2.96543 19.4166 2.58301 19.0342 2.58301 18.5624H1.83301H1.08301C1.08301 19.8626 2.137 20.9166 3.43717 20.9166V20.1666ZM20.1663 18.5624H19.4163C19.4163 19.0342 19.0339 19.4166 18.5622 19.4166V20.1666V20.9166C19.8623 20.9166 20.9163 19.8626 20.9163 18.5624H20.1663ZM18.5622 16.9583V17.7083C19.0339 17.7083 19.4163 18.0907 19.4163 18.5624H20.1663H20.9163C20.9163 17.2622 19.8623 16.2083 18.5622 16.2083V16.9583ZM3.43717 16.9583V16.2083C2.137 16.2083 1.08301 17.2622 1.08301 18.5624H1.83301H2.58301C2.58301 18.0907 2.96543 17.7083 3.43717 17.7083V16.9583ZM19.2497 17.1126H19.9997V8.24992H19.2497H18.4997V17.1126H19.2497ZM16.4997 5.49992V4.74992H5.49968V5.49992V6.24992H16.4997V5.49992ZM2.74967 8.24992H1.99967V17.1126H2.74967H3.49967V8.24992H2.74967ZM5.49968 5.49992V4.74992C3.56668 4.74992 1.99967 6.31692 1.99967 8.24992H2.74967H3.49967C3.49967 7.14535 4.39511 6.24992 5.49968 6.24992V5.49992ZM19.2497 8.24992H19.9997C19.9997 6.31692 18.4327 4.74992 16.4997 4.74992V5.49992V6.24992C17.6042 6.24992 18.4997 7.14535 18.4997 8.24992H19.2497ZM12.0166 9.84455L11.6006 10.4686L13.6917 11.8627L14.1077 11.2386L14.5237 10.6146L12.4327 9.22051L12.0166 9.84455ZM7.89162 11.2386L8.30765 11.8627L10.3987 10.4686L9.98272 9.84455L9.5667 9.22051L7.4756 10.6146L7.89162 11.2386ZM2.74967 9.16659L2.33365 9.79062L5.4417 11.8627L5.85772 11.2386L6.27375 10.6146L3.1657 8.54255L2.74967 9.16659ZM16.1416 11.2386L16.5577 11.8627L19.6657 9.79062L19.2497 9.16659L18.8337 8.54255L15.7256 10.6146L16.1416 11.2386ZM7.89162 11.2386L7.4756 10.6146C7.11171 10.8572 6.63764 10.8572 6.27375 10.6146L5.85772 11.2386L5.4417 11.8627C6.30944 12.4411 7.43991 12.4412 8.30765 11.8627L7.89162 11.2386ZM14.1077 11.2386L13.6917 11.8627C14.5594 12.4411 15.6899 12.4412 16.5577 11.8627L16.1416 11.2386L15.7256 10.6146C15.3617 10.8572 14.8876 10.8572 14.5237 10.6146L14.1077 11.2386ZM12.0166 9.84455L12.4327 9.22051C11.5649 8.64202 10.4344 8.64202 9.5667 9.22051L9.98272 9.84455L10.3987 10.4686C10.7626 10.226 11.2367 10.226 11.6006 10.4686L12.0166 9.84455Z" fill="black" fill-opacity="0.9"/>
</svg>
