<svg width="20" height="20" viewBox="0 0 20 20" fill="none" xmlns="http://www.w3.org/2000/svg">
<path d="M1.6665 7.5C1.6665 6.11929 2.78579 5 4.1665 5H5.38718C5.66581 5 5.926 4.86075 6.08056 4.62892L7.25245 2.87108C7.407 2.63925 7.6672 2.5 7.94582 2.5H12.0539C12.3325 2.5 12.5927 2.63925 12.7472 2.87108L13.9191 4.62892C14.0737 4.86075 14.3339 5 14.6125 5H15.8332C17.2139 5 18.3332 6.11929 18.3332 7.5V15C18.3332 16.3807 17.2139 17.5 15.8332 17.5H4.1665C2.78579 17.5 1.6665 16.3807 1.6665 15V7.5Z" stroke="black" stroke-opacity="0.9" stroke-width="1.5" stroke-linecap="round" stroke-linejoin="round"/>
<path d="M13.3332 10.8333C13.3332 12.6743 11.8408 14.1667 9.99984 14.1667C8.15889 14.1667 6.6665 12.6743 6.6665 10.8333C6.6665 8.99238 8.15889 7.5 9.99984 7.5C11.8408 7.5 13.3332 8.99238 13.3332 10.8333Z" stroke="black" stroke-opacity="0.9" stroke-width="1.5" stroke-linecap="round" stroke-linejoin="round"/>
</svg>
