<svg width="18" height="18" viewBox="0 0 18 18" fill="none" xmlns="http://www.w3.org/2000/svg">
<path d="M1.30572 7.1241C1.0558 6.98664 0.75 7.16745 0.75 7.45268V12.75C0.75 14.4069 2.09315 15.75 3.75 15.75H14.25C15.9069 15.75 17.25 14.4069 17.25 12.75V7.45268C17.25 7.16745 16.9442 6.98664 16.6943 7.1241L10.4458 10.5608C9.54551 11.0559 8.45449 11.0559 7.55424 10.5608L1.30572 7.1241Z" fill="black" fill-opacity="0.9"/>
<path d="M17.042 5.22095C17.1673 5.15203 17.2445 5.01735 17.2268 4.87543C17.0425 3.39536 15.78 2.25 14.25 2.25H3.75C2.22 2.25 0.957502 3.39536 0.773157 4.87543C0.75548 5.01735 0.832693 5.15203 0.958009 5.22095L8.27712 9.24646C8.72725 9.49403 9.27275 9.49403 9.72288 9.24646L17.042 5.22095Z" fill="black" fill-opacity="0.9"/>
</svg>
