<svg width="40" height="40" viewBox="0 0 40 40" fill="none" xmlns="http://www.w3.org/2000/svg">
<path d="M21.9925 5.28399C20.0145 6.88823 18.7503 9.33815 18.7503 12.0833C18.7503 14.8285 20.0145 17.2784 21.9925 18.8827C21.3605 19.0675 20.692 19.1667 20.0003 19.1667C16.0883 19.1667 12.917 15.9953 12.917 12.0833C12.917 8.17132 16.0883 5 20.0003 5C20.692 5 21.3605 5.09914 21.9925 5.28399Z" fill="#ABB5C5"/>
<path d="M6.66699 33.5714C6.66699 28.8376 10.5046 25 15.2384 25H17.9706C15.1782 26.8284 13.3337 29.9845 13.3337 33.5714C13.3337 34.0867 13.4596 34.5726 13.6823 35H8.09556C7.30658 35 6.66699 34.3604 6.66699 33.5714Z" fill="#ABB5C5"/>
<path d="M6.66699 33.5714C6.66699 28.8376 10.5046 25 15.2384 25H24.7622C29.4961 25 33.3337 28.8376 33.3337 33.5714C33.3337 34.3604 32.6941 35 31.9051 35H8.09556C7.30658 35 6.66699 34.3604 6.66699 33.5714Z" fill="white" fill-opacity="0.6"/>
<path d="M27.0837 12.0833C27.0837 15.9953 23.9123 19.1667 20.0003 19.1667C16.0883 19.1667 12.917 15.9953 12.917 12.0833C12.917 8.17132 16.0883 5 20.0003 5C23.9123 5 27.0837 8.17132 27.0837 12.0833Z" fill="white" fill-opacity="0.6"/>
<path d="M6.66699 33.5714C6.66699 28.8376 10.5046 25 15.2384 25H24.7622C29.4961 25 33.3337 28.8376 33.3337 33.5714C33.3337 34.3604 32.6941 35 31.9051 35H8.09556C7.30658 35 6.66699 34.3604 6.66699 33.5714Z" stroke="#575E60" stroke-width="1.5" stroke-linecap="round" stroke-linejoin="round"/>
<path d="M27.0837 12.0833C27.0837 15.9953 23.9123 19.1667 20.0003 19.1667C16.0883 19.1667 12.917 15.9953 12.917 12.0833C12.917 8.17132 16.0883 5 20.0003 5C23.9123 5 27.0837 8.17132 27.0837 12.0833Z" stroke="#575E60" stroke-width="1.5" stroke-linecap="round" stroke-linejoin="round"/>
</svg>
