<svg width="22" height="22" viewBox="0 0 22 22" fill="none" xmlns="http://www.w3.org/2000/svg">
<path d="M18.15 7.42499L12.65 3.3C11.6722 2.56667 10.3278 2.56667 9.35 3.3L3.85 7.42499C3.15753 7.94434 2.75 8.75941 2.75 9.62499V16.5C2.75 18.0188 3.98121 19.25 5.49999 19.25L7.79167 19.25C8.0448 19.25 8.25 19.0448 8.25 18.7917V14.6667C8.25 13.1479 9.48122 11.9167 11 11.9167C12.5188 11.9167 13.75 13.1479 13.75 14.6667V18.7917C13.75 19.0448 13.9552 19.25 14.2083 19.25L16.5 19.25C18.0188 19.25 19.25 18.0188 19.25 16.5V9.62499C19.25 8.75941 18.8425 7.94434 18.15 7.42499Z" stroke="#929292" stroke-width="1.5" stroke-linecap="round" stroke-linejoin="round"/>
</svg>
