<svg width="28" height="28" viewBox="0 0 28 28" fill="none" xmlns="http://www.w3.org/2000/svg">
<path d="M14.5833 1.16602C14.9055 1.16602 15.1667 1.42718 15.1667 1.74935V6.99935C15.1667 8.93235 16.7337 10.4993 18.6667 10.4993H23.9167C24.2388 10.4993 24.5 10.7605 24.5 11.0827V12.2802C24.5 12.5921 24.2285 12.8327 23.9167 12.8327C21.7304 12.8327 19.8562 14.1691 19.0665 16.0695C18.9999 16.2298 18.8403 16.3327 18.6667 16.3327C16.7337 16.3327 15.1667 17.8997 15.1667 19.8327L15.1667 22.166C15.1667 23.4906 15.5346 24.7292 16.1738 25.7854C16.4349 26.2168 16.1484 26.8327 15.6441 26.8327H8.16667C5.58934 26.8327 3.5 24.7433 3.5 22.166V5.83268C3.5 3.25535 5.58934 1.16602 8.16667 1.16602H14.5833Z" fill="#575E60"/>
<path d="M22.8208 7.1702C23.1882 7.53768 22.928 8.16602 22.4083 8.16602H18.6667C18.0223 8.16602 17.5 7.64368 17.5 6.99935V3.25772C17.5 2.73803 18.1283 2.47777 18.4958 2.84525L22.8208 7.1702Z" fill="#575E60"/>
<path fill-rule="evenodd" clip-rule="evenodd" d="M23.9167 17.4993C23.5945 17.4993 23.3333 17.7605 23.3333 18.0827V22.166C23.3333 22.8103 22.811 23.3327 22.1667 23.3327C21.5223 23.3327 21 22.8103 21 22.166V18.0827C21 16.4719 22.3058 15.166 23.9167 15.166C25.5275 15.166 26.8333 16.4719 26.8333 18.0827L26.8333 22.166C26.8333 24.7433 24.744 26.8327 22.1667 26.8327C19.5893 26.8327 17.5 24.7433 17.5 22.166V19.2493C17.5 18.605 18.0223 18.0827 18.6667 18.0827C19.311 18.0827 19.8333 18.605 19.8333 19.2493V22.166C19.8333 23.4547 20.878 24.4993 22.1667 24.4993C23.4553 24.4993 24.5 23.4547 24.5 22.166L24.5 18.0827C24.5 17.7605 24.2388 17.4993 23.9167 17.4993Z" fill="#575E60"/>
</svg>
