<svg width="24" height="24" viewBox="0 0 24 24" fill="none" xmlns="http://www.w3.org/2000/svg">
<path d="M10 9.38272C10.2608 8.58131 11.1111 8 12 8C13.1111 8 14 8.91358 14 10V10.01C14 11.7156 12 12 12 12.45V12.75M12 16V16.01M4.92893 4.92893C8.83417 1.02369 15.1658 1.02369 19.0711 4.92893C22.9763 8.83417 22.9763 15.1658 19.0711 19.0711C15.8474 22.2948 10.9703 22.8574 7.16949 20.7589L3.58678 21.619C2.86071 21.7934 2.20664 21.1393 2.38096 20.4132L3.24112 16.8305C1.14263 13.0297 1.70524 8.15263 4.92893 4.92893ZM12.25 16C12.25 16.1381 12.1381 16.25 12 16.25C11.8619 16.25 11.75 16.1381 11.75 16C11.75 15.8619 11.8619 15.75 12 15.75C12.1381 15.75 12.25 15.8619 12.25 16Z" stroke="black" stroke-opacity="0.9" stroke-width="1.5" stroke-linecap="round" stroke-linejoin="round"/>
</svg>
