<svg width="22" height="22" viewBox="0 0 22 22" fill="none" xmlns="http://www.w3.org/2000/svg">
<path d="M16.9262 13.8101C18.7677 14.1356 20.1664 15.7437 20.1664 17.6786C20.1664 18.0402 19.8732 18.3333 19.5116 18.3333H18.3335M15.285 3.83878C16.6559 4.29071 17.6455 5.58188 17.6455 7.10417C17.6455 8.80986 16.4031 10.2254 14.774 10.4953M2.61903 19.25H13.8809C14.3149 19.25 14.6666 18.8982 14.6666 18.4643C14.6666 15.8607 12.556 13.75 9.95236 13.75H6.5476C3.94397 13.75 1.83331 15.8607 1.83331 18.4643C1.83331 18.8982 2.18509 19.25 2.61903 19.25ZM12.1458 6.64583C12.1458 8.79744 10.4016 10.5417 8.24998 10.5417C6.09837 10.5417 4.35415 8.79744 4.35415 6.64583C4.35415 4.49422 6.09837 2.75 8.24998 2.75C10.4016 2.75 12.1458 4.49422 12.1458 6.64583Z" stroke="black" stroke-opacity="0.9" stroke-width="1.5" stroke-linecap="round" stroke-linejoin="round"/>
</svg>
