<svg width="22" height="22" viewBox="0 0 22 22" fill="none" xmlns="http://www.w3.org/2000/svg">
<path d="M11.9167 4.58317C11.9167 5.08943 11.5063 5.49984 11 5.49984C10.4938 5.49984 10.0834 5.08943 10.0834 4.58317M11.9167 4.58317C11.9167 4.07691 11.5063 3.6665 11 3.6665C10.4938 3.6665 10.0834 4.07691 10.0834 4.58317M11.9167 4.58317H10.0834M11.9167 10.9998C11.9167 11.5061 11.5063 11.9165 11 11.9165C10.4938 11.9165 10.0834 11.5061 10.0834 10.9998M11.9167 10.9998C11.9167 10.4936 11.5063 10.0832 11 10.0832C10.4938 10.0832 10.0834 10.4936 10.0834 10.9998M11.9167 10.9998H10.0834M11.9167 17.4165C11.9167 17.9228 11.5063 18.3332 11 18.3332C10.4938 18.3332 10.0834 17.9228 10.0834 17.4165M11.9167 17.4165C11.9167 16.9102 11.5063 16.4998 11 16.4998C10.4938 16.4998 10.0834 16.9102 10.0834 17.4165M11.9167 17.4165H10.0834" stroke="black" stroke-opacity="0.9" stroke-width="1.5" stroke-linecap="round" stroke-linejoin="round"/>
</svg>
