<svg width="44" height="44" viewBox="0 0 44 44" fill="none" xmlns="http://www.w3.org/2000/svg">
<path fill-rule="evenodd" clip-rule="evenodd" d="M1.8335 21.9999C1.8335 10.8622 10.8624 1.83325 22.0002 1.83325C33.1379 1.83325 42.1668 10.8622 42.1668 21.9999C42.1668 33.1377 33.1379 42.1666 22.0002 42.1666C10.8624 42.1666 1.8335 33.1377 1.8335 21.9999ZM15.5835 14.6666C14.0647 14.6666 12.8335 15.8978 12.8335 17.4166C12.8335 18.9354 14.0647 20.1666 15.5835 20.1666C17.1023 20.1666 18.3335 18.9354 18.3335 17.4166C18.3335 15.8978 17.1023 14.6666 15.5835 14.6666ZM28.4168 14.6666C26.898 14.6666 25.6668 15.8978 25.6668 17.4166C25.6668 18.9354 26.898 20.1666 28.4168 20.1666C29.9356 20.1666 31.1668 18.9354 31.1668 17.4166C31.1668 15.8978 29.9356 14.6666 28.4168 14.6666ZM14.6668 25.6675C13.9721 25.6675 13.3371 26.0602 13.0267 26.6817C12.7163 27.3032 12.7838 28.0467 13.2011 28.6021C15.2049 31.2691 18.4006 32.9999 22.0001 32.9999C25.5996 32.9999 28.7953 31.2691 30.7991 28.6021C31.2164 28.0467 31.2839 27.3032 30.9735 26.6817C30.6631 26.0602 30.0281 25.6675 29.3334 25.6675H14.6668Z" fill="#EAEAEA"/>
</svg>
