<svg width="24" height="24" viewBox="0 0 24 24" fill="none" xmlns="http://www.w3.org/2000/svg">
<path d="M11.8262 2L11.8262 1.25H11.8262V2ZM17.9131 8.08691H18.6631V8.08691L17.9131 8.08691ZM19.6523 14.8848H20.4023V14.8847L19.6523 14.8848ZM16.9189 18.083L17.022 18.8259L17.022 18.8259L16.9189 18.083ZM11.8262 18.5215V19.2715H11.8262L11.8262 18.5215ZM6.73242 18.083L6.62929 18.8259L6.62941 18.8259L6.73242 18.083ZM4 14.8848L3.25 14.8847V14.8848H4ZM5.73926 8.08691L4.98926 8.08691V8.08691H5.73926ZM4.46645 13.1864L3.8222 12.8024L4.46645 13.1864ZM11.8262 2L11.8262 2.75C14.7736 2.75004 17.1631 5.13945 17.1631 8.08692L17.9131 8.08691L18.6631 8.08691C18.6631 4.31101 15.6021 1.25006 11.8262 1.25L11.8262 2ZM17.9131 8.08691H17.1631V10.1779H17.9131H18.6631V8.08691H17.9131ZM19.1858 13.1864L18.5416 13.5704C18.7706 13.9545 18.9023 14.4032 18.9023 14.8848L19.6523 14.8848L20.4023 14.8847C20.4023 14.1254 20.1936 13.4123 19.83 12.8023L19.1858 13.1864ZM19.6523 14.8848H18.9023C18.9023 16.1307 18.0157 17.1737 16.8159 17.3401L16.9189 18.083L17.022 18.8259C18.9976 18.552 20.4023 16.8446 20.4023 14.8848H19.6523ZM16.9189 18.083L16.8159 17.3401C15.2454 17.5579 13.3181 17.7715 11.8262 17.7715L11.8262 18.5215L11.8262 19.2715C13.4268 19.2715 15.4392 19.0454 17.022 18.8259L16.9189 18.083ZM11.8262 18.5215V17.7715C10.3342 17.7715 8.40599 17.5579 6.83543 17.3401L6.73242 18.083L6.62941 18.8259C8.21222 19.0454 10.2255 19.2715 11.8262 19.2715V18.5215ZM6.73242 18.083L6.83556 17.3401C5.63612 17.1736 4.75 16.1308 4.75 14.8848H4H3.25C3.25 16.8442 4.65384 18.5516 6.62929 18.8259L6.73242 18.083ZM4 14.8848L4.75 14.8848C4.75005 14.4032 4.88177 13.9545 5.11069 13.5704L4.46645 13.1864L3.8222 12.8024C3.45868 13.4123 3.25008 14.1254 3.25 14.8847L4 14.8848ZM5.73926 10.1778H6.48926V8.08691H5.73926H4.98926V10.1778H5.73926ZM5.73926 8.08691L6.48926 8.08692C6.48928 5.13941 8.87867 2.75 11.8262 2.75V2V1.25C8.05023 1.25 4.98928 4.31099 4.98926 8.08691L5.73926 8.08691ZM4.46645 13.1864L5.11069 13.5704C5.36525 13.1433 5.72113 12.6043 5.98521 12.0752C6.25916 11.5264 6.48926 10.8908 6.48926 10.1778H5.73926H4.98926C4.98926 10.5654 4.86468 10.9614 4.6431 11.4054C4.41164 11.8691 4.13111 12.2841 3.8222 12.8024L4.46645 13.1864ZM17.9131 10.1779H17.1631C17.1631 10.8908 17.3931 11.5264 17.6671 12.0753C17.9312 12.6044 18.287 13.1433 18.5416 13.5704L19.1858 13.1864L19.83 12.8023C19.5212 12.2841 19.2406 11.8691 19.0092 11.4054C18.7876 10.9615 18.6631 10.5655 18.6631 10.1779H17.9131Z" fill="black" fill-opacity="0.9"/>
<path d="M14 20.834C13.5326 21.5369 12.7335 22.0002 11.8261 22.0002C10.9187 22.0002 10.1195 21.5369 9.65218 20.834" stroke="black" stroke-opacity="0.9" stroke-width="1.5" stroke-linecap="round"/>
</svg>
