<svg width="22" height="22" viewBox="0 0 22 22" fill="none" xmlns="http://www.w3.org/2000/svg">
<path d="M19.25 16.5H18.5H19.25ZM19.25 5.5H20H19.25ZM16.5 2.75V3.5V2.75ZM12.8333 3.5C12.4191 3.5 12.0833 3.16421 12.0833 2.75C12.0833 2.33579 12.4191 2 12.8333 2V2.75L12.8333 3.5ZM12.8333 20C12.4191 20 12.0833 19.6642 12.0833 19.25C12.0833 18.8358 12.4191 18.5 12.8333 18.5V19.25V20ZM16.5 19.25V20V20V19.25ZM6.803 5.88634C7.09589 5.59344 7.57077 5.59344 7.86366 5.88634C8.15656 6.17923 8.15656 6.6541 7.86366 6.947L7.33333 6.41667L6.803 5.88634ZM2.75 11L2.21967 11.5303C1.92678 11.2374 1.92678 10.7626 2.21967 10.4697L2.75 11ZM7.86366 15.053C8.15656 15.3459 8.15656 15.8208 7.86366 16.1137C7.57077 16.4066 7.0959 16.4066 6.803 16.1137L7.33333 15.5833L7.86366 15.053ZM11.9167 10.25C12.3309 10.25 12.6667 10.5858 12.6667 11C12.6667 11.4142 12.3309 11.75 11.9167 11.75V11V10.25ZM19.25 16.5H18.5L18.5 5.5H19.25H20L20 16.5H19.25ZM16.5 2.75V3.5L12.8333 3.5L12.8333 2.75V2L16.5 2V2.75ZM12.8333 19.25V18.5H16.5V19.25V20H12.8333V19.25ZM19.25 5.5H18.5C18.5 4.39543 17.6046 3.5 16.5 3.5V2.75V2C18.433 2 20 3.567 20 5.5H19.25ZM19.25 16.5H20C20 18.433 18.433 20 16.5 20V19.25V18.5C17.6046 18.5 18.5 17.6046 18.5 16.5H19.25ZM7.33333 6.41667L7.86366 6.947L3.28033 11.5303L2.75 11L2.21967 10.4697L6.803 5.88634L7.33333 6.41667ZM2.75 11L3.28033 10.4697L7.86366 15.053L7.33333 15.5833L6.803 16.1137L2.21967 11.5303L2.75 11ZM2.75 11V10.25L11.9167 10.25V11V11.75L2.75 11.75V11Z" fill="#DD362F"/>
</svg>
