<svg width="402" height="448" viewBox="0 0 402 448" fill="none" xmlns="http://www.w3.org/2000/svg">
<g opacity="0.1">
<path d="M261.865 96.6449C259.218 97.4072 257.41 98.6201 257.179 99.7875C256.76 101.916 258.014 103.876 260.019 104.2C260.61 104.28 262.277 103.967 263.724 103.503C265.705 102.859 266.507 102.411 267.067 101.558C268.523 99.4198 267.431 96.6364 264.925 96.1423C264.478 96.0543 263.079 96.2778 261.865 96.6449Z" fill="black"/>
<path d="M386.114 120.638C384.824 120.848 383.736 121.846 383.485 123.117C383.262 124.25 383.483 124.757 385.544 127.874C386.832 129.84 388.237 131.579 388.725 131.818C389.832 132.357 391.553 131.948 392.237 131.012C393.427 129.321 393.246 128.607 390.738 124.867C388.422 121.415 387.362 120.457 386.114 120.638Z" fill="black"/>
<path d="M409.447 125.309C409.132 125.461 407.344 126.571 405.494 127.811C402.617 129.741 402.049 130.271 401.866 131.198C401.555 132.777 401.749 133.422 402.767 134.229C404.28 135.419 405.37 135.135 409.248 132.475C412.138 130.476 412.837 129.829 413.006 128.971C413.392 127.014 411.113 124.639 409.447 125.309Z" fill="black"/>
<path d="M248.727 101.046C248.432 101.095 247.026 101.532 245.614 102.002C243.584 102.708 242.933 103.114 242.435 104.015C241.718 105.3 241.748 106.412 242.534 107.673C243.451 109.173 244.948 109.54 247.397 108.881C250.606 107.98 252.216 106.87 252.521 105.325C252.947 103.162 250.73 100.657 248.727 101.046Z" fill="black"/>
<path d="M267.655 108.879C248.696 114.951 233.274 119.901 227.144 121.867C223.489 123.037 215.418 125.619 209.247 127.613C203.082 129.572 193.297 132.708 187.544 134.57C181.798 136.398 172.122 139.52 166.033 141.459C159.979 143.404 147.718 147.336 138.811 150.181C129.896 153.061 122.257 155.443 121.791 155.458C121.352 155.514 121.057 155.742 121.12 155.968C121.216 156.201 121.093 156.284 120.839 156.127C120.584 155.97 120.056 155.937 119.637 156.068C119.219 156.2 118.567 156.25 118.217 156.216C117.833 156.176 117.414 156.308 117.298 156.535C117.189 156.727 116.963 156.789 116.811 156.653C116.694 156.522 115.823 156.6 114.945 156.891C114.04 157.141 113.073 157.342 112.75 157.35C111.508 157.319 109.005 158.074 109.445 158.375C109.665 158.525 109.555 158.539 109.164 158.355C108.772 158.171 107.4 158.257 106.09 158.57C102.201 159.479 101.453 159.653 101.281 159.619C100.211 159.622 96.1304 160.78 96.248 161.088C96.3447 161.321 96.2349 161.335 96.0216 161.151C95.5124 160.658 91.2318 161.383 91.446 161.925C91.5084 162.151 91.433 162.172 91.2197 161.987C90.8894 161.673 88.2892 162.016 85.3196 162.786L84.0028 163.133L84.9517 163.748C85.488 164.103 86.21 164.602 86.5882 164.855C86.9252 165.136 87.4678 165.278 87.7352 165.188C88.0505 165.037 88.1057 165.119 87.8387 165.387C87.565 165.69 87.6202 165.772 88.066 165.682C88.4708 165.619 88.5602 165.708 88.3552 166.024C88.1981 166.278 85.8397 167.205 83.0626 168.084C68.1207 172.772 63.3759 174.404 63.9533 174.732C64.2831 174.869 69.7264 177.654 76.0427 180.896C82.3589 184.139 87.5686 186.842 87.6581 186.931C87.734 187.089 84.9496 222.565 84.7398 223.63C84.6586 224.042 84.3017 224.043 83.1479 223.744C81.2246 223.186 79.1801 223.425 77.7139 224.349C76.2202 225.232 75.1259 226.621 75.1695 227.486C75.198 227.884 75.0955 228.042 74.9442 227.905C74.669 227.673 74.6091 228.338 74.7383 230.397C74.7669 230.795 74.9332 231.399 75.147 231.762C75.471 232.289 75.355 232.516 74.4309 233.404C71.5426 236.294 70.2116 241.418 71.3956 245.183C71.7487 246.287 72.5564 247.98 73.2248 248.932C73.8931 249.884 74.3966 250.768 74.3627 250.94C74.3357 251.077 73.9038 251.277 73.3893 251.354C72.7239 251.473 72.5049 251.679 72.5953 252.125C72.665 252.495 72.5625 252.653 72.4179 252.482C72.0189 252.154 68.9145 256.322 68.6298 257.585C68.4939 258.093 68.3232 258.417 68.2338 258.328C68.11 258.232 67.6042 258.988 67.1129 260.033C65.4336 263.304 62.8281 271.636 63.5617 271.353C63.7947 271.256 63.6869 271.984 63.3132 273.337C62.9733 274.519 62.7239 276.146 62.7331 277.004C62.7917 278.335 62.71 278.569 62.0722 278.728C61.6471 278.894 61.4077 279.204 61.4363 279.602C61.5132 280.116 61.4789 280.109 61.2511 279.636C61.0576 279.17 60.7627 279.219 59.488 279.895C58.6519 280.337 57.9672 280.915 57.9952 281.135C57.989 281.348 57.8656 281.43 57.7143 281.293C57.3288 280.896 53.5348 283.858 53.6325 284.448C53.6814 284.743 53.62 284.874 53.4686 284.737C53.1108 284.381 52.1268 285.935 52.1974 286.662C52.2743 287.176 52.2332 287.204 52.033 286.772C51.6117 285.833 50.3295 288.719 49.6526 292.153C49.2127 294.384 49.1475 295.62 49.4314 296.532C49.6118 297.245 49.7444 298.02 49.6902 298.295C49.6361 298.57 49.7874 298.707 50.0548 298.617C50.3223 298.527 50.3498 298.568 50.1583 298.815C49.7067 299.297 51.7568 303.553 52.3328 303.346C52.607 303.222 52.621 303.331 52.3952 303.572C52.1694 303.813 52.2666 304.225 52.6109 304.649C52.9828 305.115 53.1366 306.144 53.0797 307.88C52.833 315.465 56.4206 322.236 63.6765 327.768C72.5762 334.552 84.7118 337.586 96.9584 336.076C118.598 333.422 130.625 317.281 122.737 301.387C122.122 300.161 120.565 297.927 119.202 296.339L116.799 293.511L117.163 291.122C118.281 283.638 117.255 274.732 114.421 267.575C113.156 264.401 109.786 259.242 107.666 257.148L106.221 255.793L108.396 255.437C111.264 255.003 114.237 253.128 116.042 250.666C117.909 248.074 118.701 244.235 117.972 241.238C117.077 237.637 114.687 234.741 111.299 233.11C110.316 232.666 109.773 232.167 109.717 231.728C109.625 230.925 109.165 230.727 108.768 231.291C108.618 231.511 108.652 231.34 108.843 230.914C109.15 230.261 109.102 230.144 108.621 230.228C108.251 230.297 108.086 230.229 108.223 230.078C108.353 229.961 108.139 229.598 107.761 229.345C107.073 228.853 107.093 228.393 107.531 223.093C107.797 219.935 108.34 213.016 108.772 207.75C109.162 202.513 109.651 198.222 109.823 198.256C110.682 198.425 227.384 258.347 229.371 259.666C230.698 260.534 231.969 261.142 232.237 261.052C232.504 260.962 232.6 261.016 232.402 261.12C232.025 261.402 235.835 264.151 236.493 264.066C236.788 264.018 236.837 264.134 236.652 264.347C236.426 264.588 236.523 264.643 236.927 264.58C237.291 264.545 237.531 264.592 237.504 264.729C237.477 264.867 238.117 265.421 238.976 265.947C239.795 266.501 241.307 267.512 242.339 268.251C246.286 271.026 249.407 272.925 249.832 272.76C250.058 272.697 250.148 272.786 250.059 273.054C249.937 273.315 250.115 273.493 250.507 273.499C250.829 273.491 251.077 273.683 251.029 273.923C250.989 274.129 251.216 274.245 251.579 274.21C251.95 274.14 252.087 274.167 251.923 274.277C251.669 274.477 254.888 276.788 255.609 276.93C256.433 277.093 264.369 275.375 265.109 274.879C265.561 274.576 266.137 274.368 266.343 274.409C266.652 274.47 266.59 274.601 266.199 274.773C265.535 275.07 265.747 275.076 268.121 274.617C269.081 274.45 269.89 274.145 269.924 273.974C269.958 273.802 270.109 273.76 270.26 273.897C270.59 274.212 272.923 273.78 272.668 273.444C272.585 273.321 272.736 273.28 272.976 273.327C273.643 273.565 278.767 272.542 278.834 272.199C278.875 271.993 279.019 271.986 279.205 272.129C279.356 272.266 280.042 272.223 280.721 272.036C281.407 271.814 282.251 271.695 282.601 271.729C282.985 271.769 283.397 271.672 283.534 271.52C283.705 271.376 284.789 271.125 285.921 270.992C287.711 270.774 287.986 270.65 287.696 270.129C287.44 269.615 287.482 269.588 288.018 270.121C288.534 270.58 288.843 270.641 289.831 270.336C290.51 270.149 291.003 269.818 290.927 269.66C290.858 269.468 291.112 269.447 291.503 269.631C291.895 269.816 292.314 269.862 292.492 269.684C292.629 269.532 293.486 269.344 294.392 269.273C296.313 269.117 297.06 268.765 296.86 268.155C296.763 267.922 296.928 267.99 297.189 268.291C297.678 268.887 298.584 268.816 298.349 268.199C298.28 268.007 298.424 267.999 298.713 268.163C298.995 268.362 299.091 268.595 298.886 268.732C298.721 268.843 294.868 270.116 290.37 271.584C273.803 276.914 266.877 279.116 263.922 279.996L260.891 280.896L208.56 254.137C179.79 239.406 152.897 225.651 148.855 223.535C144.773 221.446 141.385 219.815 141.261 219.898C141.179 219.953 140.287 229.728 139.338 241.597L137.586 263.153L134.736 277.608C132.652 288.183 131.97 292.186 132.245 292.418C132.451 292.637 132.499 292.575 132.395 292.198C132.278 291.89 132.594 292.273 133.091 293.013C133.594 293.719 134.124 294.287 134.316 294.218C134.7 294.079 135.024 294.785 134.971 295.595C134.952 295.877 134.839 297.174 134.725 298.472C134.578 299.762 134.657 300.991 134.829 301.203C136.055 302.586 147.558 310.275 155.374 314.955C168.972 323.057 187.451 331.55 200.186 335.523C201.869 336.033 205.008 337.116 207.193 337.975C212.799 340.114 223.378 343.448 224.49 343.417C225.025 343.416 225.588 343.634 225.781 343.922C226.333 344.744 254.308 350.116 261.736 350.795C272.493 351.774 281.08 352.183 280.571 351.69C280.358 351.506 280.742 351.546 281.436 351.825C282.267 352.132 282.693 352.144 282.747 351.87C282.794 351.629 282.98 351.594 283.131 351.731C283.317 351.875 284.175 352.044 285.095 352.083C286.475 352.141 286.666 352.071 286.165 351.723C285.69 351.415 285.766 351.394 286.494 351.681C287.579 352.144 294.868 352.083 294.709 351.624C294.633 351.466 294.811 351.466 295.066 351.623C295.32 351.78 297.606 351.767 300.172 351.595C302.704 351.416 305.27 351.244 305.84 351.25C306.705 351.206 306.828 351.123 306.477 350.733C306.153 350.384 306.188 350.391 306.703 350.671C307.445 351.067 311.913 350.842 311.719 350.376C311.65 350.184 311.801 350.142 312.021 350.292C312.592 350.655 318.19 349.761 317.955 349.322C317.81 349.151 317.92 349.137 318.133 349.321C318.532 349.65 323.788 349.045 327.149 348.281C328.191 348.058 329.378 347.829 329.851 347.779C330.291 347.723 330.613 347.537 330.543 347.345C330.468 347.187 330.687 347.159 331.01 347.33C331.374 347.473 331.916 347.437 332.252 347.182C332.615 346.969 332.958 346.858 333.041 346.981C333.227 347.303 335.874 346.541 335.736 346.157C335.66 345.999 335.838 345.999 336.127 346.163C336.443 346.368 337.143 346.256 337.849 345.931C338.514 345.634 338.932 345.503 338.754 345.682C338.344 346.136 346.827 343.813 347.272 343.366C347.45 343.187 347.601 343.145 347.573 343.283C347.546 343.42 348.575 343.266 349.824 342.906C351.565 342.393 352.045 342.131 351.749 341.823C351.426 341.474 351.467 341.446 351.879 341.706C352.621 342.102 357.045 340.834 356.83 340.292C356.768 340.066 356.844 340.045 357.022 340.223C357.201 340.401 358.614 340.109 360.137 339.624C363.003 338.656 364.696 337.848 362.542 338.458C360.883 338.915 360.491 338.731 362.116 338.267C362.843 338.018 363.57 337.947 363.688 338.077C363.805 338.207 364.175 338.138 364.49 337.986C364.97 337.724 365.283 336.68 365.953 333.28L366.819 328.886L371.638 326.697C374.263 325.502 377.889 323.756 379.671 322.858C382.522 321.423 382.912 321.072 382.965 320.262C382.969 319.335 383.188 316.418 384.728 297.746C385.167 292.625 386.176 280.09 387.012 269.875C387.842 259.695 388.58 251.066 388.654 250.688C388.742 250.242 388.941 250.138 389.319 250.391C389.67 250.603 389.78 250.589 389.669 250.246C389.551 249.937 389.64 249.848 389.908 249.936C390.561 250.243 395.719 249.227 395.581 248.843C395.512 248.651 395.656 248.644 395.91 248.801C396.165 248.958 398.106 248.699 400.226 248.261C402.345 247.822 404.869 247.321 405.83 247.154C406.79 246.987 407.517 246.737 407.448 246.545C407.379 246.354 407.53 246.312 407.75 246.462C408.32 246.824 412.635 245.927 412.592 245.419C412.598 245.207 412.743 245.199 412.928 245.343C413.197 245.61 417.868 244.89 418.41 244.497C418.533 244.415 418.828 244.366 419.075 244.379C420.084 244.507 420.242 244.431 420.097 244.081C420 243.848 420.37 243.778 420.954 243.893C421.503 244.002 422.608 243.827 423.389 243.482C424.205 243.143 424.733 242.997 424.555 243.176C424.412 243.362 424.508 243.417 424.837 243.375C425.167 243.333 425.358 243.085 425.261 242.852C425.199 242.626 425.274 242.605 425.488 242.789C425.88 243.152 428.419 242.939 428.28 242.555C428.239 242.404 428.54 242.321 428.918 242.396C429.337 242.443 430.812 242.198 432.163 241.858C433.514 241.518 434.81 241.274 435.051 241.322C435.291 241.369 435.394 241.211 435.304 240.944C435.214 240.676 435.255 240.649 435.502 240.84C435.681 241.018 436.574 241.016 437.438 240.794C438.295 240.606 440.044 240.237 441.3 240.021C442.85 239.756 443.467 239.521 443.233 239.261C442.999 239.001 443.074 238.98 443.459 239.198C444.037 239.526 446.671 239.189 447.699 238.679C447.973 238.554 448.46 238.436 448.742 238.456C449.023 238.476 449.874 238.323 450.621 238.149C452.487 237.732 453.152 237.614 455.629 237.174C456.816 236.945 457.714 236.729 457.687 236.688C457.631 236.606 456.057 235.547 454.132 234.275C452.241 233.011 449.587 231.275 448.294 230.414C447.001 229.553 445.744 228.877 445.449 228.926C445.195 228.947 445.064 228.885 445.201 228.734C445.557 228.376 442.718 226.675 442.142 226.883C441.874 226.973 441.771 226.952 441.943 226.808C442.395 226.504 435.388 221.699 434.688 221.811C434.393 221.86 434.256 221.833 434.42 221.722C434.585 221.612 434.467 221.304 434.205 221.002C433.682 220.4 431.687 221.112 455.748 213.407C463.71 210.839 470.903 208.547 471.732 208.318C472.789 208.027 473.117 207.807 472.767 207.595C472.512 207.438 428.127 184.706 374.113 157.08C320.133 129.461 275.776 106.771 275.583 106.661C275.391 106.552 271.845 107.529 267.655 108.879ZM289.078 119.808C296.04 123.392 305.278 128.102 309.656 130.32C314.034 132.539 318.535 134.853 319.697 135.474C321.635 136.499 324.714 138.069 345.298 148.547C349.319 150.588 376.336 164.438 405.368 179.292C434.364 194.139 458.186 206.29 458.289 206.31C458.838 206.419 457.543 207.019 455.149 207.76C453.668 208.217 446.777 210.426 439.886 212.634L427.399 216.629L425.707 215.439C424.772 214.755 423.727 214.264 423.398 214.306C422.993 214.369 422.904 214.28 423.123 214.074C423.438 213.743 421.114 212.322 420.153 212.311C419.906 212.298 419.789 212.168 419.919 212.051C420.282 211.659 413.124 206.895 412.541 207.137C412.274 207.227 412.178 207.172 412.355 206.993C412.533 206.814 411.997 206.28 411.137 205.754C410.312 205.235 408.201 203.82 406.407 202.61C404.268 201.154 402.914 200.424 402.372 200.46C401.789 200.523 401.727 200.475 402.118 200.302C402.55 200.102 402.501 199.986 401.889 199.651C401.47 199.426 400.37 198.674 399.462 198.031C398.554 197.389 397.613 196.918 397.38 197.014C397.112 197.104 397.085 197.063 397.27 196.85C397.454 196.637 397.419 196.451 397.213 196.411C397.007 196.37 394.821 194.976 392.401 193.322C389.54 191.367 387.712 190.329 387.211 190.337C386.593 190.394 386.566 190.353 387.032 190.159C387.388 189.98 387.45 189.849 387.209 189.802C387.003 189.761 385.862 189.037 384.741 188.21C383.586 187.375 382.424 186.754 382.129 186.803C381.834 186.852 381.669 186.784 381.806 186.632C382.162 186.274 380.326 185.092 379.709 185.327C379.442 185.417 379.339 185.397 379.51 185.252C379.715 185.114 378.952 184.465 377.838 183.781C375.94 182.551 374.27 181.437 373.128 180.534C372.818 180.295 372.379 180.173 372.111 180.263C371.844 180.353 371.775 180.339 371.946 180.194C372.364 179.884 369.827 178.1 369.161 178.219C368.832 178.261 368.784 178.144 368.962 177.965C369.153 177.718 368.988 177.65 368.439 177.72C367.932 177.762 367.732 177.687 367.869 177.536C368.047 177.357 367.799 176.987 367.366 176.652C366.396 175.961 366.19 175.921 366.377 176.421C366.439 176.648 366.295 176.655 366.041 176.498C365.752 176.334 365.628 176.06 365.758 175.943C366.114 175.585 361.913 173.009 361.049 173.053C360.623 173.04 360.486 173.013 360.746 172.957C361.419 172.804 359.114 170.923 358.071 170.789C357.583 170.729 357.356 170.613 357.486 170.496C357.932 170.227 355.34 168.539 354.64 168.65C354.269 168.72 354.146 168.624 354.324 168.445C354.686 168.053 351.964 166.304 351.347 166.539C351.038 166.656 351.017 166.581 351.25 166.306C351.524 166.003 351.359 165.935 350.569 165.958C349.959 165.98 349.725 165.898 350.034 165.781C350.383 165.636 349.406 164.801 347.075 163.236C345.157 161.93 343.514 160.857 343.445 160.844C343.342 160.823 342.304 160.119 341.148 159.285C339.966 158.41 338.584 157.638 338.069 157.537C337.382 157.401 337.265 157.271 337.622 157.092C337.971 156.947 337.875 156.892 337.305 156.887C336.873 156.909 336.605 156.82 336.742 156.669C336.975 156.394 333.716 154.289 332.754 154.099C332.377 154.025 332.204 153.813 332.341 153.661C332.485 153.475 332.416 153.283 332.182 153.202C331.207 152.902 331.042 152.834 330.368 152.273C330.003 151.952 329.474 151.741 329.241 151.837C328.967 151.962 328.946 151.886 329.178 151.611C329.452 151.308 329.397 151.226 328.917 151.31C328.581 151.386 328.381 151.311 328.512 151.194C328.833 150.83 325.822 149.095 324.978 149.214C324.471 149.256 324.443 149.215 324.799 149.036C325.183 148.897 324.427 148.213 322.055 146.675C320.253 145.5 318.403 144.208 317.867 143.853C315.68 142.28 314.491 141.618 313.908 141.681C313.359 141.751 313.366 141.717 313.88 141.461C314.394 141.206 314.332 141.158 313.653 141.167C313.22 141.189 312.959 141.066 313.13 140.921C313.267 140.77 313.294 140.633 313.225 140.619C313.122 140.599 312.517 140.23 311.851 139.813C310.744 139.095 310.675 139.082 311.164 139.678C311.487 140.027 311.577 140.294 311.371 140.254C311.2 140.22 310.814 139.823 310.573 139.419C310.304 138.973 309.637 138.378 309.1 138.022C308.523 137.695 307.712 137.107 307.216 136.724C306.762 136.313 306.24 136.068 306.048 136.137C305.849 136.24 305.65 136.165 305.615 135.98C305.483 135.383 301.537 132.965 300.782 132.994C300.309 133.044 300.178 132.982 300.521 132.871C300.843 132.685 300.678 132.439 299.921 131.933C299.316 131.564 298.704 131.229 298.533 131.195C298.395 131.168 298.1 130.86 297.879 130.531C297.652 130.237 297.198 130.005 296.807 129.999C296.443 130.034 296.285 129.932 296.429 129.746C296.607 129.567 296.414 129.458 295.865 129.528C295.392 129.578 295.117 129.523 295.282 129.413C295.61 129.193 293.121 127.346 288.445 124.285C286.232 122.85 284.164 122.299 284.538 123.3C284.6 123.527 284.525 123.547 284.346 123.369C284.167 123.192 283.117 123.27 282.033 123.52C280.949 123.77 279.646 124.048 279.173 124.098C278.48 124.175 278.391 124.264 278.714 124.614C279.01 124.922 278.935 124.942 278.454 124.669C277.993 124.471 276.326 124.606 273.905 125.128C271.785 125.566 269.707 125.977 269.295 126.074L268.561 126.179L269.187 126.623C269.655 126.965 269.517 126.938 268.755 126.645C268.026 126.359 267.635 126.353 267.581 126.628C267.54 126.834 267.383 126.91 267.231 126.773C266.901 126.458 264.685 126.842 264.611 127.219C264.584 127.357 264.467 127.405 264.316 127.268C264.192 127.172 263.43 127.236 262.607 127.431C261.778 127.66 260.899 127.772 260.687 127.766C260.446 127.718 260.213 127.815 260.173 128.021C260.139 128.193 259.83 128.31 259.521 128.249C258.663 128.08 255.775 128.616 255.707 128.96C255.673 129.131 255.433 129.084 255.11 128.913C254.759 128.702 254.65 128.716 254.767 129.024C254.885 129.333 254.768 129.381 254.452 129.176C254.163 129.012 253.909 129.033 253.869 129.239C253.828 129.445 253.554 129.57 253.279 129.516C252.97 129.455 252.133 129.539 251.344 129.741C249.849 130.088 249.595 130.109 249.032 130.07C248.861 130.036 248.752 130.228 248.842 130.496C248.931 130.763 248.89 130.791 248.643 130.599C248.161 130.147 246.803 130.343 246.989 130.844C247.114 131.118 246.963 131.16 246.681 130.961C246.392 130.797 245.198 130.883 244.012 131.113C242.784 131.37 241.522 131.621 241.192 131.663C240.829 131.698 240.582 131.864 240.658 132.021C240.727 132.213 240.514 132.207 240.191 132.036C239.827 131.893 239.278 131.963 238.915 132.177C238.58 132.432 238.051 132.577 237.811 132.53C237.056 132.381 232.721 133.381 232.839 133.69C232.908 133.882 232.626 133.862 232.241 133.644C231.719 133.398 231.603 133.446 231.741 133.83C231.852 134.173 231.804 134.235 231.563 134.009C231.143 133.605 227.871 134.102 228.064 134.568C228.133 134.76 227.955 134.76 227.666 134.597C227.384 134.398 226.835 134.468 226.431 134.71C226.027 134.951 225.65 135.055 225.567 134.932C225.491 134.774 224.387 134.949 223.145 135.275C221.904 135.601 220.457 135.886 219.949 135.929C219.407 135.965 219.05 136.144 219.126 136.302C219.195 136.494 218.907 136.508 218.516 136.324C217.89 136.058 217.815 136.079 218.193 136.51C218.572 136.941 218.531 136.969 218.016 136.689C217.699 136.484 216.142 136.605 214.393 136.974C212.753 137.328 209.255 138.065 206.621 138.58C204.015 139.137 201.971 139.733 202.081 139.897C202.192 140.061 202.02 140.028 201.704 139.823C201.353 139.611 200.694 139.695 199.947 140.047C199.282 140.344 198.864 140.476 199.049 140.262C199.268 140.056 199.144 139.96 198.808 140.036C198.479 140.079 198.294 140.292 198.363 140.484C198.432 140.676 198.288 140.683 198.027 140.56C197.683 140.314 196.688 140.475 192.059 141.524C191.462 141.656 190.536 141.83 190.069 141.845C189.376 141.922 189.287 142.012 189.611 142.361C189.934 142.71 189.893 142.738 189.446 142.471C189.123 142.301 187.346 142.45 185.467 142.757C181.879 143.405 181.001 143.696 181.188 144.196C181.23 144.347 180.907 144.355 180.44 144.191C179.966 144.062 178.888 144.1 178.024 144.322C177.167 144.509 176.811 144.689 177.243 144.667C177.675 144.645 178.08 144.761 178.15 144.953C178.219 145.145 177.718 145.153 177.01 144.942C176.234 144.718 175.26 144.775 174.423 145.039L173.093 145.454L174.093 144.902C174.648 144.619 183.316 141.726 193.368 138.5C203.414 135.309 217.464 130.802 224.582 128.531C231.706 126.226 243.541 122.46 250.851 120.12C258.202 117.752 266.575 115.087 269.475 114.125C273.966 112.692 274.899 112.483 275.6 112.907C276.054 113.139 282.143 116.265 289.078 119.808ZM299.476 132.202C299.545 132.394 299.477 132.559 299.271 132.518C299.099 132.484 298.858 132.258 298.789 132.066C298.727 131.84 298.788 131.709 298.994 131.75C299.166 131.784 299.413 131.975 299.476 132.202ZM257.671 129.133C257.239 129.333 256.711 129.479 256.539 129.445C256.34 129.37 256.586 129.204 257.121 129.025C258.349 128.589 258.617 128.677 257.671 129.133ZM316.27 144.715C316.147 144.798 315.893 144.64 315.7 144.353C315.458 143.948 315.499 143.921 315.94 144.222C316.263 144.392 316.394 144.632 316.27 144.715ZM242.786 132.084C242.649 132.235 242.34 132.353 242.169 132.319C241.963 132.278 241.962 132.1 242.099 131.949C242.243 131.763 242.544 131.68 242.716 131.714C242.922 131.754 242.929 131.898 242.786 132.084ZM323.307 147.921C323.273 148.093 322.951 148.101 322.593 147.923C322.236 147.746 321.954 147.547 321.968 147.479C321.981 147.41 322.304 147.402 322.681 147.477C323.059 147.551 323.341 147.749 323.307 147.921ZM243.337 132.906C243.2 133.057 242.857 133.168 242.651 133.128C242.411 133.08 242.472 132.95 242.822 132.804C243.556 132.521 243.693 132.548 243.337 132.906ZM342.327 160.908C342.203 160.991 341.949 160.834 341.756 160.546C341.515 160.142 341.556 160.115 341.996 160.415C342.319 160.586 342.45 160.826 342.327 160.908ZM344.457 162.042C344.203 162.063 343.846 161.886 343.708 161.68C343.488 161.351 343.632 161.344 344.188 161.597C344.608 161.822 344.752 161.993 344.457 162.042ZM347.572 164.154C347.813 164.38 347.882 164.572 347.676 164.531C347.504 164.497 347.126 164.244 346.885 164.019C346.645 163.793 346.61 163.608 346.781 163.641C346.987 163.682 347.331 163.928 347.572 164.154ZM213.085 138C212.948 138.151 212.605 138.262 212.399 138.221C212.158 138.174 212.22 138.043 212.57 137.898C213.303 137.615 213.44 137.642 213.085 138ZM210.574 138.432C210.451 138.515 210.135 138.488 209.915 138.338C209.66 138.181 209.784 138.098 210.161 138.173C210.546 138.213 210.731 138.356 210.574 138.432ZM168.806 146.392C168.497 146.51 167.99 146.553 167.715 146.498C167.372 146.431 167.461 146.341 167.948 146.223C168.956 145.994 169.505 146.102 168.806 146.392ZM392.849 194.124C392.918 194.316 392.671 194.303 392.314 194.125C391.956 193.948 391.619 193.667 391.543 193.51C391.474 193.318 391.721 193.331 392.079 193.508C392.436 193.686 392.773 193.966 392.849 194.124ZM157.865 148.516C157.728 148.667 157.385 148.778 157.179 148.737C156.939 148.69 157 148.559 157.35 148.414C158.084 148.131 158.221 148.158 157.865 148.516ZM156.569 148.76C156.555 148.828 156.281 148.953 155.952 148.995C155.657 149.044 155.526 148.982 155.67 148.797C155.943 148.494 156.623 148.485 156.569 148.76ZM150.217 150.219C150.183 150.39 149.978 150.528 149.772 150.487C149.6 150.454 149.565 150.268 149.702 150.117C149.846 149.931 150.045 149.828 150.148 149.848C150.216 149.862 150.258 150.013 150.217 150.219ZM410.548 206.03C410.424 206.113 410.109 206.087 409.889 205.936C409.634 205.779 409.758 205.696 410.135 205.771C410.52 205.811 410.705 205.955 410.548 206.03ZM134.064 153.455C133.055 153.684 132.506 153.576 133.205 153.285C133.514 153.168 134.021 153.125 134.296 153.179C134.639 153.247 134.55 153.337 134.064 153.455ZM431.29 221.676C431.154 221.827 430.811 221.938 430.605 221.898C430.364 221.85 430.426 221.72 430.775 221.575C431.509 221.291 431.646 221.318 431.29 221.676ZM415.714 220.175C415.7 220.244 415.426 220.368 415.097 220.41C414.802 220.459 414.671 220.397 414.815 220.212C415.088 219.909 415.768 219.9 415.714 220.175ZM426.902 223.308C426.382 223.598 425.703 223.785 425.428 223.731C425.119 223.67 425.455 223.415 426.175 223.2C427.889 222.646 428.095 222.687 426.902 223.308ZM441.262 226.281C441.248 226.35 440.754 226.502 440.137 226.559C439.362 226.691 438.984 226.617 438.901 226.315C438.804 226.082 438.859 225.986 439.01 226.123C439.161 226.259 439.615 226.313 440.026 226.216C440.877 226.063 441.302 226.075 441.262 226.281ZM411.73 221.387C411.593 221.538 411.25 221.649 411.044 221.609C410.804 221.561 410.865 221.431 411.215 221.285C411.948 221.002 412.085 221.029 411.73 221.387ZM410.049 221.769C408.685 222.356 407.985 222.468 408.945 221.944C409.5 221.661 410.117 221.426 410.288 221.46C410.494 221.5 410.358 221.652 410.049 221.769ZM423.069 224.478C423.056 224.547 422.781 224.671 422.452 224.713C422.157 224.762 422.027 224.701 422.17 224.515C422.444 224.212 423.123 224.204 423.069 224.478ZM407.759 222.53C407.739 222.633 407.567 222.778 407.341 222.84C407.149 222.91 406.991 222.807 407.025 222.635C407.065 222.429 407.271 222.292 407.443 222.325C407.649 222.366 407.772 222.462 407.759 222.53ZM448.09 230.909C447.966 230.991 447.65 230.965 447.43 230.814C447.176 230.657 447.299 230.574 447.677 230.649C448.061 230.689 448.247 230.833 448.09 230.909ZM406.594 223.014C406.58 223.083 406.306 223.207 405.976 223.249C405.682 223.298 405.551 223.237 405.695 223.051C405.968 222.748 406.648 222.739 406.594 223.014ZM417.748 226.14C417.714 226.312 417.509 226.45 417.303 226.409C417.131 226.375 417.096 226.19 417.233 226.039C417.377 225.853 417.575 225.75 417.678 225.77C417.747 225.783 417.789 225.934 417.748 226.14ZM402.609 224.226C402.473 224.377 402.13 224.488 401.924 224.448C401.683 224.4 401.745 224.27 402.094 224.125C402.828 223.841 402.965 223.868 402.609 224.226ZM415.246 227.074C415.109 227.225 414.8 227.343 414.628 227.309C414.422 227.268 414.422 227.09 414.559 226.938C414.702 226.753 415.004 226.669 415.176 226.703C415.382 226.744 415.389 226.888 415.246 227.074ZM400.107 225.16C399.798 225.277 399.387 225.374 399.181 225.334C399.009 225.3 399.112 225.142 399.42 225.024C399.729 224.907 400.175 224.816 400.346 224.85C400.552 224.891 400.415 225.042 400.107 225.16ZM85.706 163.54C85.7752 163.732 85.6727 163.89 85.501 163.856C85.295 163.816 85.1572 163.61 85.191 163.438C85.2316 163.232 85.3274 163.109 85.396 163.122C85.499 163.142 85.6436 163.314 85.706 163.54ZM455.223 236.88C455.21 236.949 454.935 237.073 454.606 237.115C454.311 237.164 454.181 237.103 454.324 236.917C454.598 236.614 455.277 236.606 455.223 236.88ZM90.2108 166.925C90.4516 167.151 90.5208 167.343 90.3148 167.302C90.1431 167.268 89.7649 167.015 89.5241 166.789C89.2832 166.564 89.2484 166.378 89.4201 166.412C89.6261 166.453 89.9699 166.699 90.2108 166.925ZM393.833 227.133C393.696 227.284 393.353 227.395 393.147 227.354C392.906 227.307 392.968 227.176 393.318 227.031C394.051 226.748 394.188 226.775 393.833 227.133ZM391.98 227.481C391.844 227.633 391.33 227.888 390.877 228.013C390.164 228.193 390.17 228.159 391.048 227.69C392.165 227.089 392.391 227.027 391.98 227.481ZM94.6033 169.431C94.48 169.514 94.1642 169.488 93.9442 169.337C93.6898 169.18 93.8131 169.097 94.1908 169.172C94.5752 169.212 94.7609 169.355 94.6033 169.431ZM404.034 230.571C403.725 230.688 403.314 230.785 403.108 230.745C402.936 230.711 403.039 230.553 403.347 230.435C403.656 230.318 404.102 230.227 404.273 230.261C404.479 230.302 404.342 230.453 404.034 230.571ZM95.9941 171.061C96.1934 171.136 96.661 171.478 97.1011 171.779C100.67 174.301 102.519 175.415 102.903 175.276C103.136 175.18 103.198 175.228 103.055 175.413C102.877 175.592 103.544 176.187 104.596 176.823C105.772 177.554 106.204 177.711 105.853 177.32C105.53 176.971 105.44 176.704 105.646 176.744C105.852 176.785 106.148 177.093 106.362 177.456C106.803 178.292 108.227 179.393 109.119 179.569C109.497 179.644 109.772 179.876 109.732 180.082C109.691 180.288 109.918 180.404 110.247 180.362C110.542 180.313 110.673 180.375 110.529 180.561C110.125 180.98 110.757 181.034 111.374 180.62C111.785 180.344 111.812 180.385 111.559 180.764C111.341 181.149 111.822 181.6 113.534 182.687C114.765 183.5 116.036 184.107 116.331 184.059C116.626 184.01 116.757 184.071 116.62 184.222C116.394 184.463 117.358 185.367 118.251 185.721C118.512 185.844 118.911 186.172 119.138 186.467C119.359 186.795 119.819 186.993 120.21 186.999C120.608 186.97 120.766 187.073 120.547 187.279C120.363 187.493 120.493 187.554 120.898 187.491C121.234 187.415 121.433 187.49 121.303 187.607C121.166 187.758 121.621 188.169 122.26 188.544C122.892 188.954 124.921 190.246 126.708 191.49C128.503 192.7 130.201 193.677 130.496 193.628C130.791 193.579 130.887 193.634 130.75 193.785C130.614 193.936 130.834 194.265 131.191 194.443C131.576 194.661 132.401 195.18 133.027 195.625C133.653 196.069 134.299 196.411 134.484 196.376C134.663 196.375 134.883 196.526 134.952 196.718C135.021 196.91 136.582 198.038 138.418 199.22C140.254 200.402 142.33 201.81 143.073 202.385C143.788 202.918 144.751 203.464 145.224 203.594C145.671 203.682 145.925 203.839 145.843 203.894C145.59 204.094 148.938 206.287 149.247 206.17C149.439 206.101 149.528 206.19 149.494 206.361C149.46 206.533 150.485 207.306 151.757 208.091C152.988 208.905 154.438 209.868 154.899 210.245C155.36 210.621 156.054 210.9 156.39 210.824C156.72 210.782 156.857 210.809 156.692 210.919C156.357 211.174 163.391 216.021 164.511 216.313C164.923 216.394 165.17 216.585 165.075 216.709C164.897 216.888 167.654 218.823 170.899 220.818C171.697 221.296 172.611 221.904 172.955 222.15C176.256 224.406 177.115 224.932 177.554 224.876C177.883 224.834 177.932 224.95 177.706 225.191C177.432 225.494 177.597 225.562 178.386 225.539C179.031 225.524 179.231 225.599 178.922 225.716C178.538 225.855 179.267 226.498 181.309 227.721C182.932 228.718 184.025 229.505 183.737 229.519C183.49 229.506 166.005 220.673 144.878 209.874L106.486 190.215L106.823 187.963C107.146 185.779 107.126 185.704 106.073 184.89C105.351 184.391 105.021 184.255 105.139 184.563C105.263 184.837 104.947 184.632 104.52 184.084C104.052 183.564 103.501 183.099 103.295 183.058C103.089 183.018 102.244 182.423 101.411 181.759C100.613 181.103 99.9741 180.727 100.078 180.926C100.147 181.118 99.5418 180.749 98.737 180.127L97.2857 178.984L96.6007 181.917C96.1124 184.032 95.8194 184.795 95.5307 184.631C95.3039 184.515 91.3176 182.481 86.6509 180.098C81.9499 177.709 78.1353 175.709 78.1556 175.606C78.1759 175.503 81.8443 174.264 86.3014 172.824C91.8624 171.031 94.5714 170.317 95.025 170.549C95.3824 170.726 95.836 170.958 95.9941 171.061ZM388.895 228.656C388.758 228.808 388.416 228.919 388.21 228.878C387.969 228.831 388.031 228.7 388.38 228.555C389.114 228.272 389.251 228.299 388.895 228.656ZM398.383 232.096C398.363 232.199 397.842 232.489 397.177 232.786C396.546 233.09 396.025 233.201 396.059 233.029C396.086 232.892 396.572 232.595 397.189 232.36C398.417 231.924 398.417 231.924 398.383 232.096ZM385.268 229.868C385.254 229.936 384.98 230.061 384.651 230.103C384.356 230.151 384.225 230.09 384.369 229.904C384.643 229.602 385.322 229.593 385.268 229.868ZM432.031 241.44C431.895 241.591 431.586 241.709 431.414 241.675C431.208 241.634 431.208 241.456 431.345 241.305C431.488 241.119 431.79 241.036 431.962 241.07C432.168 241.11 432.175 241.254 432.031 241.44ZM390.32 235.001C390.286 235.173 390.08 235.31 389.874 235.27C389.703 235.236 389.668 235.051 389.805 234.899C389.948 234.714 390.147 234.61 390.25 234.631C390.319 234.644 390.36 234.795 390.32 235.001ZM113.484 181.856C113.546 182.083 113.402 182.09 113.148 181.933C112.577 181.571 112.522 181.31 113.002 181.405C113.208 181.445 113.422 181.63 113.484 181.856ZM416.465 243.508C416.444 243.611 416.273 243.755 416.047 243.818C415.855 243.887 415.697 243.784 415.73 243.613C415.771 243.407 415.977 243.269 416.148 243.303C416.354 243.343 416.478 243.439 416.465 243.508ZM100.993 181.891C101.062 182.083 100.96 182.241 100.788 182.207C100.582 182.167 100.444 181.961 100.478 181.789C100.519 181.583 100.614 181.46 100.683 181.473C100.786 181.494 100.931 181.665 100.993 181.891ZM382.537 237.39C382.4 237.542 382.057 237.652 381.851 237.612C381.611 237.564 381.672 237.434 382.022 237.289C382.755 237.005 382.893 237.032 382.537 237.39ZM368.947 234.854C368.934 234.923 368.66 235.047 368.33 235.089C368.035 235.138 367.905 235.077 368.048 234.891C368.322 234.588 369.002 234.58 368.947 234.854ZM367.021 235.58C367.007 235.649 366.617 235.821 366.164 235.946C365.334 236.175 365.341 236.141 366.054 235.782C366.89 235.34 367.075 235.305 367.021 235.58ZM387.76 240.025C387.328 240.225 386.8 240.371 386.628 240.337C386.429 240.262 386.676 240.097 387.211 239.917C388.438 239.481 388.706 239.569 387.76 240.025ZM411.275 245.766C411.152 245.849 410.836 245.822 410.616 245.672C410.362 245.515 410.485 245.432 410.863 245.507C411.247 245.547 411.433 245.69 411.275 245.766ZM106.62 186.638C106.532 187.085 106.402 187.202 106.347 186.941C106.318 186.722 106.016 186.448 105.707 186.387C105.192 186.286 105.205 186.217 105.706 186.03C106.597 185.671 106.817 185.821 106.62 186.638ZM363.943 236.721C363.929 236.79 363.655 236.914 363.325 236.956C363.03 237.005 362.9 236.944 363.044 236.758C363.317 236.455 363.997 236.446 363.943 236.721ZM376.695 239.52C376.737 239.85 376.401 239.926 375.708 239.825L374.671 239.656L375.583 239.372C376.077 239.22 376.529 239.095 376.536 239.061C376.57 239.068 376.633 239.294 376.695 239.52ZM383.755 241.162C383.721 241.333 383.433 241.526 383.104 241.568C382.59 241.645 382.562 241.604 383.028 241.232C383.623 240.743 383.843 240.715 383.755 241.162ZM101.591 187.002C102.237 187.344 102.257 187.419 101.708 187.311C101.33 187.236 100.733 187.012 100.389 186.766C99.6049 186.219 100.498 186.395 101.591 187.002ZM381.019 242.192C379.916 242.723 378.75 243.029 378.797 242.788C378.858 242.479 380.271 242.009 380.861 242.089C381.04 242.089 381.102 242.137 381.019 242.192ZM358.621 238.383C358.313 238.5 357.901 238.598 357.695 238.557C357.524 238.523 357.626 238.365 357.935 238.248C358.243 238.13 358.689 238.04 358.861 238.073C359.067 238.114 358.93 238.265 358.621 238.383ZM377.235 243.479C376.926 243.596 376.515 243.694 376.309 243.653C376.137 243.619 376.239 243.461 376.548 243.344C376.856 243.226 377.302 243.136 377.474 243.169C377.68 243.21 377.543 243.361 377.235 243.479ZM137.092 196.355C136.969 196.437 136.653 196.411 136.433 196.261C136.179 196.103 136.302 196.021 136.68 196.095C137.064 196.135 137.25 196.279 137.092 196.355ZM368.412 242.096C368.275 242.248 367.932 242.358 367.726 242.318C367.486 242.27 367.547 242.14 367.897 241.995C368.63 241.711 368.767 241.738 368.412 242.096ZM353.856 239.94C353.719 240.092 353.376 240.202 353.17 240.162C352.93 240.115 352.991 239.984 353.341 239.839C354.074 239.555 354.212 239.582 353.856 239.94ZM365.915 242.817C365.833 242.872 365.339 243.024 364.818 243.136C363.92 243.351 363.92 243.351 364.632 242.992C365.27 242.654 366.477 242.5 365.915 242.817ZM94.2766 190.269C94.6828 190.741 94.5963 191.723 93.6091 197.093C91.9394 206.287 91.8194 205.086 92.942 191.611C93.1353 189.545 93.3954 189.311 94.2766 190.269ZM362.892 243.862C362.858 244.033 362.652 244.171 362.446 244.131C362.275 244.097 362.24 243.912 362.377 243.76C362.52 243.574 362.719 243.471 362.822 243.491C362.891 243.505 362.932 243.656 362.892 243.862ZM370.761 245.556C370.748 245.624 370.474 245.749 370.144 245.791C369.849 245.84 369.719 245.778 369.862 245.593C370.136 245.29 370.816 245.281 370.761 245.556ZM383.054 248.336C383.034 248.439 382.863 248.583 382.636 248.646C382.444 248.715 382.286 248.612 382.32 248.441C382.361 248.235 382.566 248.097 382.738 248.131C382.944 248.171 383.068 248.267 383.054 248.336ZM98.2363 192.619C98.113 192.702 97.7972 192.675 97.5771 192.525C97.3228 192.367 97.4461 192.285 97.8238 192.359C98.2082 192.399 98.3939 192.543 98.2363 192.619ZM360.046 244.727C359.909 244.879 359.6 244.996 359.429 244.963C359.223 244.922 359.222 244.743 359.359 244.592C359.503 244.406 359.804 244.323 359.976 244.357C360.182 244.398 360.189 244.542 360.046 244.727ZM344.502 242.876C344.42 242.931 343.927 243.084 343.405 243.195C342.507 243.41 342.507 243.41 343.219 243.051C343.857 242.713 345.064 242.559 344.502 242.876ZM104.01 195.897C103.887 195.98 103.571 195.953 103.351 195.803C103.097 195.646 103.22 195.563 103.598 195.638C103.982 195.678 104.168 195.821 104.01 195.897ZM103.699 197.477C103.549 197.697 103.514 197.511 103.609 197.031C103.703 196.55 103.806 196.392 103.868 196.618C103.89 196.872 103.808 197.284 103.699 197.477ZM382.46 251.714C382.804 252.139 382.755 254.198 382.224 260.692C381.459 269.458 380.059 286.874 379.435 294.741C379.229 297.233 378.765 302.848 378.406 307.2C378.047 311.552 377.736 315.664 377.704 316.371L377.625 317.676L373.129 319.857C368.914 321.879 367.398 322.33 367.574 321.437C367.608 321.265 367.793 321.23 367.945 321.367C368.158 321.552 369.98 312.851 373.391 295.547C376.592 279.306 378.404 269.391 378.233 269.357C378.027 269.317 377.403 269.586 376.793 269.965C376.183 270.344 375.525 270.607 375.353 270.573C375.147 270.532 375.332 270.319 375.764 270.119C376.436 269.788 376.401 269.781 375.338 269.928C374.487 270.081 374.241 270.247 374.509 270.514C374.743 270.774 374.668 270.795 374.283 270.576C373.609 270.194 369.322 270.953 368.116 271.643C367.636 271.905 367.074 272.044 366.854 271.894C366.345 271.579 363.279 272.295 363.562 272.671C363.672 272.836 363.452 272.864 363.088 272.721C362.655 272.564 362.422 272.661 362.43 272.983C362.438 273.306 362.253 273.341 361.902 273.129C361.235 272.712 357.38 273.45 357.567 273.951C357.629 274.177 357.588 274.205 357.402 274.061C356.982 273.657 354.403 273.898 354.568 274.323C354.644 274.481 354.356 274.495 353.964 274.311C353.339 274.045 353.264 274.066 353.642 274.497C354.021 274.928 354.014 274.963 353.533 274.69C352.921 274.355 350.342 274.774 349.89 275.255C349.754 275.407 349.52 275.504 349.383 275.477C348.717 275.238 348.49 275.301 348.622 275.719C348.712 275.986 348.671 276.014 348.423 275.822C347.914 275.33 345.431 275.803 345.906 276.289C346.147 276.515 346.002 276.522 345.583 276.297C344.834 275.935 341.219 276.542 341.522 276.994C341.598 277.152 341.927 277.11 342.174 276.945C342.462 276.752 342.839 276.648 343.045 276.688C343.217 276.722 343.032 276.935 342.634 277.142C342.203 277.343 341.557 277.358 341.193 277.215C340.41 276.847 333.523 278.128 333.826 278.581C333.936 278.745 333.799 278.718 333.483 278.513C333.16 278.342 332.906 278.363 332.865 278.569C332.818 278.81 332.585 278.907 332.392 278.797C331.767 278.531 327.7 279.442 327.838 279.826C327.914 279.983 327.77 279.99 327.543 279.874C327.034 279.56 316.326 281.587 316.725 281.915C316.877 282.052 316.808 282.039 316.609 281.964C316.382 281.848 314.996 282.002 313.508 282.315C312.019 282.628 310.503 282.9 310.139 282.936C309.591 283.006 309.536 283.102 309.866 283.417C310.155 283.759 310.114 283.787 309.702 283.527C308.96 283.131 306.867 283.432 307.054 283.932C307.123 284.124 307 284.207 306.766 284.125C305.942 283.784 303.184 284.204 303.356 284.595C303.446 284.862 303.261 284.897 302.897 284.754C302.54 284.576 301.593 284.675 300.763 284.904C299.933 285.133 299.186 285.306 299.076 285.32C298.973 285.3 298.019 285.433 296.921 285.573C295.453 285.783 295.063 285.956 295.359 286.264C295.689 286.579 295.613 286.599 295.16 286.367C294.548 286.033 288.415 287.107 287.882 287.643C287.745 287.795 287.484 287.85 287.326 287.748C287.168 287.645 285.885 287.821 284.506 288.119C282.647 288.502 282.065 288.744 282.361 289.052C282.622 289.353 282.581 289.381 282.162 289.155C281.839 288.985 281.152 288.849 280.651 288.858C279.965 288.901 279.835 289.018 280.165 289.333C280.454 289.675 280.413 289.702 280.001 289.443C279.32 289.095 277.166 289.348 277.332 289.773C277.408 289.93 277.188 289.958 276.865 289.788C276.501 289.645 275.959 289.68 275.623 289.935C275.26 290.149 274.924 290.226 274.841 290.102C274.724 289.972 274.251 290.021 273.785 290.215C273.284 290.402 272.091 290.666 271.062 290.82C269.292 291.113 264.84 291.983 256.362 293.736L252.418 294.564L250.025 292.95C248.698 292.082 247.399 291.434 247.166 291.531C246.899 291.621 246.837 291.573 246.98 291.387C247.336 291.029 246.594 290.455 245.907 290.498C245.66 290.485 245.592 290.471 245.749 290.395C246.277 290.25 239.306 285.808 238.62 285.851C238.263 285.852 238.077 285.709 238.159 285.475C238.234 285.276 238.02 285.091 237.711 285.03C237.361 284.997 237.21 284.86 237.347 284.709C237.484 284.557 237.373 284.393 237.133 284.345C236.893 284.298 236.288 283.929 235.792 283.546C235.304 283.129 234.644 282.856 234.384 282.912C234.054 282.954 234.006 282.837 234.191 282.624C234.41 282.417 234.252 282.315 233.751 282.323C233.312 282.379 233.044 282.291 233.174 282.174C233.276 282.016 233.021 281.68 232.588 281.345C231.584 280.648 231.412 280.614 231.62 281.19C231.71 281.457 231.524 281.314 231.221 280.862C230.918 280.409 229.625 279.37 228.325 278.543C227.019 277.75 225.066 276.438 223.973 275.652C222.886 274.831 221.896 274.244 221.807 274.333C221.684 274.416 221.409 274.183 221.188 273.854C220.94 273.485 220.48 273.287 220.041 273.343C219.567 273.392 219.409 273.29 219.587 273.111C219.724 272.959 219.641 272.658 219.352 272.494C219.07 272.296 218.919 272.337 219.043 272.611C219.133 272.879 218.796 272.598 218.294 272.071C217.764 271.503 217.159 271.134 216.788 271.204C216.418 271.273 216.294 271.178 216.52 270.937C216.746 270.696 216.512 270.614 215.792 270.651C215.181 270.673 214.947 270.591 215.256 270.474C215.606 270.329 214.629 269.494 212.298 267.929C210.379 266.623 208.736 265.55 208.667 265.537C208.564 265.516 207.588 264.86 206.522 264.115C203.269 261.797 202.561 261.408 202.061 261.595C201.794 261.685 201.697 261.63 201.875 261.451C202.149 261.149 199.144 259.022 198.182 258.833C197.942 258.785 197.695 258.594 197.667 258.374C197.666 258.196 197.329 257.916 196.965 257.772C196.601 257.629 195.996 257.26 195.59 256.966C195.225 256.645 194.696 256.434 194.463 256.53C194.23 256.627 194.168 256.579 194.312 256.393C194.674 256.001 191.271 253.904 190.434 253.988C190.036 254.017 190.009 253.976 190.324 253.824C190.955 253.52 187.028 250.82 185.552 250.529C185.003 250.421 184.741 250.298 185.002 250.242C185.62 250.186 180.002 246.296 179.356 246.312C179.103 246.333 179.041 246.285 179.26 246.257C179.452 246.188 178.909 245.688 178.049 245.162C174.158 242.826 180.976 246.238 218.949 265.673C241.045 276.984 259.492 286.363 259.952 286.561C260.543 286.82 261.689 286.618 263.821 285.932C265.495 285.406 271.056 283.613 276.198 281.952C287.005 278.518 302.118 273.686 319.412 268.106C326.111 265.967 335.025 263.087 339.215 261.737C348.047 258.913 352.505 257.651 353.911 257.572C354.447 257.57 355.023 257.363 355.132 257.17C355.241 256.978 355.694 256.853 356.14 256.941C356.765 257.028 360.928 256.173 361.6 255.842C361.682 255.786 361.62 255.56 361.372 255.369C361.076 255.061 361.124 254.999 361.57 254.908C361.906 254.832 362.092 254.975 361.976 255.202C361.771 255.697 362.231 255.716 365.922 255.088C367.616 254.816 368.899 254.462 368.857 254.312C368.788 254.12 369.069 254.139 369.454 254.358C369.977 254.604 370.093 254.555 369.955 254.171C369.844 253.828 369.892 253.766 370.098 253.986C370.277 254.163 371.327 254.085 372.418 253.801C373.501 253.551 375.175 253.203 376.135 253.035C377.123 252.909 377.823 252.619 377.726 252.386C377.629 252.153 377.739 252.139 377.952 252.324C378.434 252.775 380.547 252.371 380.332 251.83C380.27 251.603 380.345 251.583 380.559 251.767C380.772 251.952 381.177 252.068 381.548 251.998C382.062 251.921 382.076 251.852 381.718 251.496C381.484 251.236 381.442 251.085 381.648 251.126C381.82 251.16 382.191 251.447 382.46 251.714ZM341.492 243.674C341.416 243.695 340.984 243.895 340.553 244.095C339.805 244.447 339.805 244.447 340.367 243.951C340.668 243.69 341.1 243.49 341.306 243.53C341.512 243.571 341.574 243.619 341.492 243.674ZM362.807 247.911C362.786 248.014 362.615 248.159 362.389 248.221C362.197 248.29 362.039 248.188 362.073 248.016C362.113 247.81 362.319 247.672 362.49 247.706C362.696 247.747 362.82 247.843 362.807 247.911ZM361.614 248.354C361.538 248.375 361.106 248.575 360.675 248.775C359.928 249.127 359.928 249.127 360.489 248.631C360.79 248.37 361.222 248.17 361.428 248.21C361.634 248.251 361.696 248.299 361.614 248.354ZM359.338 249.225C359.029 249.342 358.618 249.44 358.412 249.399C358.24 249.365 358.342 249.207 358.651 249.089C358.959 248.972 359.405 248.881 359.577 248.915C359.783 248.956 359.646 249.107 359.338 249.225ZM103.501 200.291C103.344 200.545 103.261 200.422 103.336 200.044C103.376 199.66 103.519 199.474 103.595 199.632C103.678 199.755 103.651 200.071 103.501 200.291ZM336.514 245.582C336.501 245.65 336.227 245.775 335.897 245.817C335.602 245.866 335.472 245.804 335.615 245.619C335.889 245.316 336.568 245.307 336.514 245.582ZM370.293 252.455C370.156 252.606 369.814 252.717 369.608 252.676C369.367 252.629 369.429 252.498 369.778 252.353C370.512 252.07 370.649 252.097 370.293 252.455ZM333.497 246.414C333.483 246.482 333.209 246.607 332.88 246.649C332.585 246.698 332.454 246.636 332.598 246.451C332.872 246.148 333.551 246.139 333.497 246.414ZM367.077 253.39C367.064 253.459 366.789 253.583 366.46 253.625C366.165 253.674 366.034 253.612 366.178 253.427C366.452 253.124 367.131 253.115 367.077 253.39ZM344.329 249.726C344.11 249.754 343.932 249.933 343.973 250.084C344.049 250.242 343.789 250.297 343.411 250.223C342.759 250.094 342.765 250.06 343.396 249.756C343.787 249.584 344.274 249.466 344.438 249.534C344.644 249.574 344.59 249.671 344.329 249.726ZM365.295 254.287C365.364 254.479 365.283 254.713 365.091 254.782C364.899 254.851 364.788 254.687 364.842 254.412C364.958 253.828 365.074 253.78 365.295 254.287ZM349.052 252.548C348.743 252.665 348.332 252.762 348.126 252.722C347.954 252.688 348.057 252.53 348.365 252.412C348.674 252.295 349.12 252.204 349.291 252.238C349.497 252.279 349.361 252.43 349.052 252.548ZM327.394 248.421C327.381 248.49 327.106 248.614 326.777 248.656C326.482 248.705 326.352 248.643 326.495 248.458C326.769 248.155 327.448 248.146 327.394 248.421ZM358.636 256.042C357.854 256.387 357.093 256.63 356.922 256.596C356.544 256.521 359.313 255.319 359.732 255.366C359.904 255.4 359.417 255.697 358.636 256.042ZM168.105 218.163C167.982 218.245 167.666 218.219 167.446 218.068C167.192 217.911 167.315 217.828 167.693 217.903C168.077 217.943 168.263 218.087 168.105 218.163ZM325.131 249.045C325.117 249.114 324.843 249.238 324.514 249.28C324.219 249.329 324.088 249.267 324.232 249.082C324.506 248.779 325.185 248.77 325.131 249.045ZM171.172 220.337C171.235 220.563 171.091 220.57 170.836 220.413C170.266 220.051 170.21 219.79 170.691 219.885C170.897 219.926 171.11 220.11 171.172 220.337ZM102.596 215.379C101.752 225.628 101.437 228.312 101.147 227.613C100.995 227.298 100.541 227.066 99.9718 227.06L99.0453 227.056L101.083 216.9C102.186 211.303 103.128 206.888 103.19 207.114C103.225 207.299 102.954 211.027 102.596 215.379ZM319.439 250.776C319.419 250.879 319.248 251.024 319.022 251.086C318.83 251.156 318.671 251.053 318.705 250.881C318.746 250.675 318.951 250.538 319.123 250.571C319.329 250.612 319.453 250.708 319.439 250.776ZM339.349 255.629C339.212 255.78 338.869 255.891 338.663 255.85C338.423 255.803 338.484 255.672 338.834 255.527C339.568 255.244 339.705 255.271 339.349 255.629ZM179.654 224.719C179.53 224.802 179.215 224.775 178.995 224.625C178.74 224.468 178.863 224.385 179.241 224.46C179.626 224.5 179.811 224.643 179.654 224.719ZM329.785 254.385C329.758 254.523 329.251 254.744 328.627 254.835C327.227 255.058 327.233 254.845 328.632 254.443C329.853 254.042 329.853 254.042 329.785 254.385ZM338.053 255.872C338.039 255.941 337.765 256.065 337.436 256.107C337.141 256.156 337.01 256.095 337.154 255.909C337.427 255.606 338.107 255.598 338.053 255.872ZM316.32 251.945C316.238 252 315.744 252.152 315.223 252.264C314.324 252.479 314.324 252.479 315.037 252.12C315.674 251.782 316.882 251.628 316.32 251.945ZM313.474 252.811C313.077 253.018 312.672 253.081 312.582 252.992C312.451 252.752 313.466 252.31 313.912 252.398C314.118 252.438 313.906 252.61 313.474 252.811ZM324.916 255.744C324.656 255.978 324.526 256.273 324.637 256.438C324.747 256.602 324.61 256.575 324.293 256.37C323.75 256.049 323.757 256.015 324.429 255.684C325.333 255.255 325.512 255.255 324.916 255.744ZM334.213 257.256C334.2 257.324 333.925 257.449 333.596 257.491C333.301 257.539 333.171 257.478 333.314 257.292C333.588 256.99 334.267 256.981 334.213 257.256ZM185.36 228.341C185.237 228.424 184.921 228.397 184.701 228.247C184.447 228.09 184.57 228.007 184.948 228.081C185.332 228.121 185.518 228.265 185.36 228.341ZM186.671 230.739C186.547 230.822 186.232 230.796 186.012 230.645C185.757 230.488 185.881 230.405 186.258 230.48C186.643 230.52 186.828 230.663 186.671 230.739ZM328.309 259.159C328.172 259.311 327.829 259.421 327.623 259.381C327.383 259.333 327.445 259.203 327.794 259.058C328.528 258.774 328.665 258.801 328.309 259.159ZM326.396 259.638C325.998 259.845 325.593 259.908 325.504 259.819C325.373 259.579 326.387 259.137 326.834 259.225C327.04 259.266 326.827 259.438 326.396 259.638ZM192.856 233.742C192.733 233.825 192.417 233.798 192.197 233.648C191.942 233.491 192.066 233.408 192.443 233.482C192.828 233.523 193.014 233.666 192.856 233.742ZM195.811 235.038C195.687 235.121 195.372 235.094 195.152 234.944C194.897 234.787 195.02 234.704 195.398 234.778C195.783 234.818 195.968 234.962 195.811 235.038ZM315.543 258.783C315.406 258.934 315.063 259.045 314.857 259.004C314.617 258.957 314.678 258.826 315.028 258.681C315.761 258.398 315.899 258.425 315.543 258.783ZM323.715 260.572C323.317 260.779 322.83 260.897 322.624 260.856C322.453 260.823 322.631 260.644 323.028 260.437C323.46 260.236 323.954 260.084 324.16 260.125C324.331 260.159 324.147 260.372 323.715 260.572ZM200.622 237.77C200.499 237.853 200.183 237.826 199.963 237.676C199.709 237.518 199.832 237.436 200.21 237.51C200.594 237.55 200.78 237.694 200.622 237.77ZM299.966 257.282C299.952 257.35 299.678 257.475 299.349 257.517C299.054 257.566 298.923 257.504 299.067 257.318C299.341 257.016 300.02 257.007 299.966 257.282ZM371.609 271.476C371.485 271.558 371.17 271.532 370.95 271.381C370.695 271.224 370.819 271.141 371.196 271.216C371.581 271.256 371.766 271.4 371.609 271.476ZM154.245 229.305C154.672 229.675 154.871 229.928 154.665 229.888C154.494 229.854 153.985 229.54 153.558 229.17C153.132 228.801 152.967 228.554 153.138 228.588C153.344 228.629 153.819 228.936 154.245 229.305ZM311.491 260.338C311.45 260.544 309.029 261.066 308.617 260.984C308.315 260.889 310.824 260.1 311.284 260.119C311.428 260.112 311.518 260.201 311.491 260.338ZM207.083 241.184C206.96 241.266 206.644 241.24 206.424 241.089C206.17 240.932 206.293 240.85 206.671 240.924C207.055 240.964 207.241 241.108 207.083 241.184ZM294.473 258.91C294.336 259.061 294.028 259.179 293.856 259.145C293.65 259.104 293.65 258.926 293.786 258.774C293.93 258.589 294.232 258.505 294.403 258.539C294.609 258.58 294.617 258.724 294.473 258.91ZM159.265 232.792C160.269 233.668 159.857 233.586 158.544 232.65C157.946 232.246 157.712 231.986 157.986 232.04C158.261 232.095 158.838 232.422 159.265 232.792ZM211 243.026C210.877 243.109 210.561 243.082 210.341 242.932C210.087 242.774 210.21 242.692 210.588 242.766C210.972 242.806 211.158 242.95 211 243.026ZM292.011 259.637C291.991 259.74 291.82 259.885 291.593 259.947C291.401 260.016 291.243 259.914 291.277 259.742C291.318 259.536 291.523 259.398 291.695 259.432C291.901 259.473 292.025 259.568 292.011 259.637ZM290.846 260.121C290.832 260.189 290.558 260.314 290.229 260.356C289.934 260.405 289.803 260.343 289.947 260.158C290.22 259.855 290.9 259.846 290.846 260.121ZM303.337 262.797C303.2 262.949 302.858 263.059 302.652 263.019C302.411 262.971 302.473 262.841 302.822 262.696C303.556 262.412 303.693 262.439 303.337 262.797ZM311.578 264.6C311.146 264.8 310.618 264.946 310.447 264.912C310.247 264.837 310.494 264.672 311.029 264.492C312.256 264.056 312.524 264.144 311.578 264.6ZM99.2569 224.173C99.0877 225.031 98.8494 225.698 98.6777 225.664C98.5403 225.637 98.607 224.937 98.8449 224.092C99.0828 223.247 99.3555 222.587 99.4242 222.601C99.4928 222.614 99.4261 223.315 99.2569 224.173ZM302 263.247C301.966 263.419 301.761 263.556 301.555 263.516C301.383 263.482 301.348 263.297 301.485 263.145C301.629 262.96 301.828 262.856 301.931 262.877C301.999 262.89 302.041 263.041 302 263.247ZM164.938 236.585C165.178 236.811 165.248 237.003 165.042 236.962C164.87 236.929 164.492 236.676 164.251 236.45C164.01 236.224 163.975 236.039 164.147 236.073C164.353 236.113 164.697 236.359 164.938 236.585ZM218.767 247.054C218.644 247.136 218.328 247.11 218.108 246.959C217.853 246.802 217.977 246.72 218.354 246.794C218.739 246.834 218.925 246.978 218.767 247.054ZM309.843 264.9C309.767 264.921 309.335 265.121 308.903 265.321C308.156 265.673 308.156 265.673 308.718 265.178C309.019 264.916 309.451 264.716 309.657 264.756C309.863 264.797 309.925 264.845 309.843 264.9ZM357.144 274.831C357.384 275.056 357.454 275.248 357.248 275.208C357.076 275.174 356.698 274.921 356.457 274.695C356.216 274.469 356.181 274.284 356.353 274.318C356.559 274.359 356.903 274.605 357.144 274.831ZM286.862 261.333C286.725 261.484 286.382 261.595 286.176 261.554C285.936 261.507 285.997 261.376 286.347 261.231C287.08 260.948 287.218 260.975 286.862 261.333ZM299.498 264.18C299.361 264.332 299.052 264.449 298.881 264.416C298.675 264.375 298.674 264.196 298.811 264.045C298.955 263.859 299.256 263.776 299.428 263.81C299.634 263.851 299.641 263.995 299.498 264.18ZM307.607 265.565C307.587 265.668 307.415 265.813 307.189 265.875C306.997 265.944 306.839 265.842 306.873 265.67C306.914 265.464 307.119 265.326 307.291 265.36C307.497 265.401 307.621 265.496 307.607 265.565ZM167.681 238.41C167.558 238.493 167.242 238.466 167.022 238.316C166.767 238.159 166.891 238.076 167.268 238.15C167.653 238.191 167.839 238.334 167.681 238.41ZM222.96 249.307C222.836 249.39 222.521 249.363 222.301 249.213C222.046 249.055 222.169 248.973 222.547 249.047C222.932 249.087 223.117 249.231 222.96 249.307ZM298.201 264.424C298.188 264.493 297.914 264.617 297.584 264.659C297.289 264.708 297.159 264.647 297.302 264.461C297.576 264.158 298.255 264.15 298.201 264.424ZM170.129 240.105C170.198 240.297 170.13 240.462 169.924 240.422C169.752 240.388 169.511 240.162 169.442 239.97C169.38 239.744 169.441 239.613 169.647 239.654C169.819 239.688 170.067 239.879 170.129 240.105ZM229.145 252.31C229.022 252.392 228.706 252.366 228.486 252.215C228.231 252.058 228.355 251.975 228.732 252.05C229.117 252.09 229.302 252.234 229.145 252.31ZM87.1312 224.707C86.6713 224.688 85.9846 224.553 85.5861 224.403C85.1533 224.246 85.5102 224.245 86.3686 224.414C87.2269 224.584 87.5567 224.72 87.1312 224.707ZM232.1 253.605C231.976 253.688 231.66 253.662 231.44 253.511C231.186 253.354 231.309 253.271 231.687 253.346C232.072 253.386 232.257 253.529 232.1 253.605ZM85.1964 224.932C85.1829 225.001 84.7781 225.064 84.2839 225.038C83.8172 225.053 83.5217 224.923 83.6518 224.806C83.8844 224.531 85.2505 224.658 85.1964 224.932ZM79.6352 224.193C79.6216 224.262 79.3475 224.386 79.0181 224.428C78.7232 224.477 78.5926 224.415 78.7362 224.23C79.0099 223.927 79.6893 223.918 79.6352 224.193ZM278.64 264.135C278.627 264.204 278.353 264.328 278.023 264.37C277.728 264.419 277.598 264.358 277.741 264.172C278.015 263.869 278.695 263.861 278.64 264.135ZM295.004 267.432C294.881 267.515 294.565 267.488 294.345 267.338C294.091 267.181 294.214 267.098 294.592 267.173C294.976 267.213 295.162 267.356 295.004 267.432ZM236.911 256.337C236.788 256.42 236.472 256.393 236.252 256.243C235.998 256.086 236.121 256.003 236.499 256.078C236.883 256.118 237.069 256.261 236.911 256.337ZM340.926 277.483C340.913 277.552 340.419 277.704 339.795 277.795C338.512 277.97 338.353 277.69 339.615 277.439C340.541 277.265 340.967 277.277 340.926 277.483ZM247.289 261.593C247.166 261.676 246.85 261.649 246.63 261.499C246.376 261.342 246.499 261.259 246.877 261.334C247.261 261.374 247.447 261.517 247.289 261.593ZM269.513 267.009C269.5 267.077 269.274 267.14 269.013 267.195C268.718 267.244 268.539 267.066 268.586 266.826C268.634 266.586 268.867 266.489 269.121 266.646C269.341 266.796 269.527 266.94 269.513 267.009ZM334.639 279.882C334.516 279.965 334.2 279.938 333.98 279.788C333.726 279.631 333.849 279.548 334.227 279.623C334.611 279.663 334.797 279.806 334.639 279.882ZM285.933 270.566C285.92 270.635 285.645 270.759 285.316 270.801C285.021 270.85 284.891 270.789 285.034 270.603C285.308 270.3 285.987 270.292 285.933 270.566ZM75.1696 230.018C75.0125 230.273 74.9298 230.149 75.0042 229.772C75.0443 229.387 75.188 229.202 75.2639 229.359C75.3466 229.483 75.32 229.798 75.1696 230.018ZM267.257 267.598C267.244 267.667 266.969 267.791 266.64 267.833C266.345 267.882 266.215 267.821 266.358 267.635C266.632 267.332 267.311 267.324 267.257 267.598ZM280.463 270.63C280.34 270.712 280.024 270.686 279.804 270.535C279.55 270.378 279.673 270.295 280.051 270.37C280.435 270.41 280.621 270.554 280.463 270.63ZM258.63 267.396C258.506 267.478 258.19 267.452 257.97 267.301C257.716 267.144 257.839 267.062 258.217 267.136C258.602 267.176 258.787 267.32 258.63 267.396ZM328.233 281.259C328.295 281.485 328.151 281.492 327.897 281.335C327.326 280.973 327.271 280.713 327.751 280.807C327.957 280.848 328.171 281.033 328.233 281.259ZM110.21 238.995C113.395 241.477 113.47 246.164 110.436 248.527C108.587 249.946 107.434 250.182 103.508 249.836C100.137 249.564 99.9861 249.606 99.7207 250.41L99.4485 251.248L98.5877 250.186C98.1331 249.597 97.4381 248.961 97.0875 248.749C96.7301 248.572 96.1522 248.065 95.8079 247.641C95.2295 246.956 95.2285 246.599 95.9043 242.809L96.6754 238.716L100.061 239.455C103.962 240.295 105.807 240.16 107.574 238.796C108.163 238.341 108.766 237.997 108.835 238.01C108.938 238.03 109.564 238.475 110.21 238.995ZM107.053 238.907C107.04 238.976 106.683 239.155 106.299 239.294C105.771 239.439 105.496 239.385 105.386 239.042C105.289 238.809 105.337 238.747 105.488 238.884C105.674 239.028 106.024 239.061 106.339 238.909C106.991 238.681 107.1 238.667 107.053 238.907ZM276.145 272.632C276.022 272.715 275.706 272.688 275.486 272.538C275.232 272.38 275.355 272.298 275.733 272.372C276.117 272.412 276.303 272.556 276.145 272.632ZM82.886 235.748C82.9551 235.94 83.6423 236.254 84.3633 236.396L85.7024 236.66L84.9729 240.904C84.3314 244.701 84.1747 245.134 83.653 245.066C83.3372 245.04 82.0891 245.4 80.8961 245.843C79.1891 246.541 78.6059 246.604 78.145 246.228C76.6386 245.003 76.032 241.567 76.987 239.436C77.7031 237.794 79.7093 236.121 81.2118 235.918C81.8293 235.861 82.2612 235.661 82.1852 235.503C82.075 235.339 82.1639 235.249 82.37 235.29C82.576 235.331 82.8236 235.522 82.886 235.748ZM86.0718 236.234C85.9485 236.316 85.6327 236.29 85.4127 236.139C85.1583 235.982 85.2816 235.9 85.6593 235.974C86.0438 236.014 86.2295 236.158 86.0718 236.234ZM100.836 239.144C100.712 239.227 100.397 239.2 100.177 239.05C99.9222 238.893 100.045 238.81 100.423 238.884C100.808 238.924 100.993 239.068 100.836 239.144ZM318.86 282.122C318.737 282.205 318.421 282.178 318.201 282.028C317.947 281.871 318.07 281.788 318.448 281.862C318.832 281.903 319.018 282.046 318.86 282.122ZM269.573 273.762C269.491 273.817 268.997 273.969 268.476 274.081C267.578 274.296 267.578 274.296 268.29 273.937C268.928 273.599 270.135 273.445 269.573 273.762ZM312.316 283.293C311.781 283.473 311.226 283.578 311.02 283.537C310.848 283.503 311.095 283.338 311.629 283.158C312.164 282.978 312.754 282.88 312.926 282.914C313.132 282.955 312.851 283.113 312.316 283.293ZM253.427 272.077C253.303 272.16 252.987 272.133 252.767 271.983C252.513 271.826 252.636 271.743 253.014 271.817C253.398 271.857 253.584 272.001 253.427 272.077ZM258.486 275C258.548 275.227 258.404 275.234 258.15 275.077C257.579 274.715 257.524 274.454 258.004 274.549C258.21 274.589 258.423 274.774 258.486 275ZM207.734 265.567C207.721 265.635 207.467 265.657 207.192 265.602C206.917 265.548 206.704 265.364 206.745 265.158C206.778 264.986 207.032 264.965 207.287 265.122C207.534 265.313 207.748 265.498 207.734 265.567ZM209.899 266.707C209.776 266.79 209.46 266.763 209.24 266.613C208.986 266.455 209.109 266.373 209.487 266.447C209.871 266.487 210.057 266.631 209.899 266.707ZM212.794 268.847C213.035 269.073 213.104 269.265 212.898 269.224C212.727 269.19 212.349 268.937 212.108 268.712C211.867 268.486 211.832 268.301 212.004 268.334C212.21 268.375 212.554 268.621 212.794 268.847ZM94.6395 247.054C94.4824 247.308 94.3997 247.185 94.4741 246.807C94.5142 246.423 94.6579 246.237 94.7338 246.395C94.8165 246.518 94.7899 246.834 94.6395 247.054ZM81.3367 246.322C81.3231 246.391 80.9324 246.563 80.4798 246.688C79.65 246.917 79.6568 246.882 80.3695 246.524C81.2056 246.082 81.3908 246.047 81.3367 246.322ZM84.4573 248.043C84.334 248.126 84.0182 248.099 83.7982 247.949C83.5438 247.791 83.6671 247.709 84.0448 247.783C84.4293 247.823 84.615 247.967 84.4573 248.043ZM284.433 289.032C284.125 289.15 283.617 289.193 283.342 289.138C282.999 289.071 283.088 288.981 283.575 288.863C284.583 288.634 285.132 288.742 284.433 289.032ZM227.336 278.312C227.763 278.682 227.963 278.935 227.757 278.894C227.585 278.861 227.076 278.546 226.65 278.177C226.223 277.807 226.058 277.561 226.229 277.595C226.435 277.635 226.91 277.943 227.336 278.312ZM102.712 257.313C103.064 258.06 103.064 258.06 102.602 257.505C102.306 257.197 102.106 256.765 102.147 256.559C102.187 256.353 102.235 256.291 102.29 256.373C102.311 256.449 102.511 256.881 102.712 257.313ZM103.742 260.048C103.791 260.343 103.729 260.474 103.543 260.33C103.358 260.186 103.268 259.919 103.308 259.713C103.403 259.232 103.623 259.383 103.742 260.048ZM76.5063 256.712C76.0063 257.078 75.5614 257.525 75.514 257.765C75.4734 257.971 75.2887 258.184 75.0967 258.254C74.898 258.357 74.8767 258.103 75.0609 257.712C75.4091 257.031 77.0662 255.681 77.266 255.935C77.3554 256.024 77.0063 256.347 76.5063 256.712ZM85.8163 257.977C85.7824 258.149 85.2548 258.473 84.6721 258.714L83.6165 259.184L84.6165 258.454C85.6987 257.668 85.8975 257.565 85.8163 257.977ZM106.713 264.878C111.276 271.949 112.935 281.264 111.455 291.851L110.883 296.019L112.706 297.627C120.941 304.886 121.862 315.054 114.963 322.184C112.725 324.489 107.854 327.488 104.481 328.678C91.8783 333.078 76.8901 330.943 66.8761 323.298C64.5171 321.513 63.4846 320.418 61.8306 317.952C59.8942 315.109 58.554 311.956 58.9708 311.289C59.0734 311.131 59.6919 311.431 60.3728 311.958C61.0537 312.484 61.8028 312.846 62.0978 312.797C62.3516 312.776 62.4822 312.837 62.3454 312.988C61.9895 313.346 66.2088 315.284 67.1489 315.219C67.691 315.184 67.7872 315.238 67.4376 315.383C66.8138 315.653 68.6756 316.341 73.4215 317.597C77.1166 318.575 84.778 319.337 84.1242 318.673C83.8558 318.406 83.9656 318.392 84.4535 318.631C85.1683 318.985 87.9614 318.93 88.6877 318.502C88.8865 318.399 89.3256 318.343 89.7033 318.417C90.0466 318.485 90.2454 318.381 90.183 318.155C90.1138 317.963 90.2303 317.915 90.519 318.078C90.7734 318.236 91.3774 318.248 91.8711 318.095C92.3649 317.943 92.9273 317.804 93.0989 317.838C93.3117 317.844 93.4553 317.659 93.434 317.405C93.4471 317.158 93.5704 317.075 93.7217 317.212C94.0796 317.568 95.1909 317.359 95.0525 316.975C94.9766 316.817 95.1957 316.611 95.525 316.568C95.82 316.52 95.9505 316.581 95.8069 316.767C95.1706 317.462 98.3786 316.025 100.811 314.543C103.695 312.757 106.269 310.376 106.137 309.6C106.115 309.347 106.177 309.216 106.321 309.387C106.659 309.668 108.155 307.145 108.849 305.07C109.121 304.232 109.377 302.57 109.429 301.404C109.491 298.919 108.836 295.366 108.335 295.552C108.143 295.621 108.102 295.471 108.252 295.251C108.56 294.776 106.015 290.494 104.101 288.262C102.704 286.666 101.975 286.202 102.541 287.312C102.879 287.949 102.838 287.977 102.404 287.463C102.115 287.121 102.038 286.606 102.262 286.009C103.38 283.054 104.909 275.295 105.058 272.007C105.191 268.074 104.822 263.614 104.342 263.519C104.17 263.485 104.142 263.266 104.299 263.011C104.456 262.757 104.448 262.434 104.269 262.257C104.084 262.113 103.959 261.839 104 261.633C104.068 261.289 105.424 262.912 106.713 264.878ZM262.791 293.148C262.359 293.349 261.831 293.494 261.66 293.46C261.46 293.386 261.707 293.22 262.242 293.04C263.469 292.604 263.737 292.693 262.791 293.148ZM257.379 294.186C257.366 294.255 257.091 294.379 256.762 294.421C256.467 294.47 256.336 294.409 256.48 294.223C256.754 293.92 257.433 293.911 257.379 294.186ZM74.2689 259.196C74.105 259.485 73.8995 259.623 73.8511 259.506C73.7684 259.383 73.8434 259.184 74.0213 259.005C74.4386 258.516 74.6243 258.66 74.2689 259.196ZM80.3849 262.007C80.1044 262.344 79.8032 262.606 79.7002 262.585C79.6315 262.572 79.7611 262.276 80.0416 261.939C80.322 261.602 80.6233 261.341 80.7263 261.361C80.7949 261.374 80.6654 261.67 80.3849 262.007ZM71.6896 262.148C71.5325 262.402 71.4498 262.279 71.5242 261.901C71.5644 261.517 71.708 261.331 71.7839 261.489C71.8666 261.612 71.84 261.928 71.6896 262.148ZM77.2723 265.674C77.1016 265.997 76.7322 266.423 76.4101 266.609C76.0126 266.816 76.0465 266.645 76.6142 265.936C77.4691 264.856 77.7089 264.725 77.2723 265.674ZM367.889 323.461C367.868 323.564 367.697 323.708 367.471 323.771C367.279 323.84 367.121 323.737 367.154 323.566C367.195 323.36 367.401 323.222 367.572 323.256C367.778 323.296 367.902 323.392 367.889 323.461ZM66.4915 268.613C66.3344 268.868 66.2517 268.744 66.3261 268.367C66.3662 267.982 66.5099 267.797 66.5858 267.954C66.6685 268.078 66.6419 268.393 66.4915 268.613ZM366.919 327.835C366.762 328.09 366.679 327.966 366.754 327.589C366.794 327.204 366.938 327.018 367.013 327.176C367.096 327.299 367.07 327.615 366.919 327.835ZM67.5942 270.258C67.437 270.512 67.3543 270.389 67.4288 270.011C67.4689 269.626 67.6125 269.441 67.6884 269.598C67.7711 269.722 67.7446 270.037 67.5942 270.258ZM65.8246 275.616C65.6742 275.836 65.6394 275.651 65.7341 275.17C65.8289 274.689 65.9314 274.531 65.9938 274.757C66.0151 275.011 65.9338 275.423 65.8246 275.616ZM60.4358 280.153C60.1616 280.278 59.9701 280.525 60.0461 280.683C60.1152 280.875 59.7724 280.986 59.326 280.898L58.4885 280.804L59.4068 280.307C59.8865 280.045 60.4556 279.872 60.6341 279.871C60.8401 279.912 60.7443 280.036 60.4358 280.153ZM64.5386 282.139C64.3815 282.394 64.2988 282.27 64.3732 281.893C64.4133 281.508 64.5569 281.322 64.6329 281.48C64.7156 281.603 64.689 281.919 64.5386 282.139ZM139.288 298.123C139.633 298.726 139.599 298.719 138.987 298.206C138.244 297.631 138.133 297.289 138.648 297.39C138.82 297.424 139.116 297.732 139.288 298.123ZM355.65 340.309C355.637 340.378 355.308 340.599 354.951 340.778C354.314 341.116 354.286 341.075 354.841 340.614C355.396 340.152 355.704 340.035 355.65 340.309ZM57.3458 282.077C57.209 282.228 56.8661 282.339 56.6601 282.298C56.4198 282.251 56.4812 282.12 56.8308 281.975C57.5644 281.692 57.7017 281.719 57.3458 282.077ZM70.3804 285.074C70.2233 285.329 70.1406 285.205 70.215 284.828C70.2551 284.443 70.3988 284.257 70.4747 284.415C70.5574 284.538 70.5308 284.854 70.3804 285.074ZM106.879 292.447C107.217 293.085 107.176 293.112 106.749 292.564C106.453 292.256 106.232 291.927 106.246 291.859C106.3 291.584 106.541 291.81 106.879 292.447ZM55.0654 283.874C54.6611 284.116 54.6335 284.075 54.9343 283.635C55.105 283.311 55.3448 283.18 55.4275 283.304C55.5102 283.427 55.3531 283.681 55.0654 283.874ZM64.0359 286.499C63.8652 286.822 63.8372 286.602 63.9455 286.053C64.0605 285.469 64.1766 285.242 64.239 285.469C64.2603 285.723 64.1655 286.203 64.0359 286.499ZM107.36 295.253C107.024 295.508 107.004 295.432 107.27 294.986C107.53 294.573 107.522 294.429 107.214 294.547C106.905 294.664 106.857 294.547 107.11 294.169C107.417 293.695 107.452 293.702 107.652 294.312C107.784 294.73 107.682 295.067 107.36 295.253ZM64.2251 287.891C64.1709 288.166 64.0549 288.393 63.9862 288.379C63.9176 288.366 63.8276 288.098 63.7444 287.797C63.6955 287.502 63.8116 287.275 63.9833 287.309C64.1893 287.349 64.2792 287.617 64.2251 287.891ZM62.1211 288.975C61.9504 289.298 61.9223 289.078 62.0306 288.529C62.1457 287.945 62.2617 287.718 62.3241 287.945C62.3454 288.199 62.2507 288.679 62.1211 288.975ZM345.708 343.7C345.694 343.768 345.42 343.893 345.091 343.935C344.796 343.984 344.665 343.922 344.809 343.737C345.083 343.434 345.762 343.425 345.708 343.7ZM70.5466 290.564C70.5616 291.031 70.432 291.326 70.315 291.196C70.0398 290.964 70.1665 289.598 70.4411 289.652C70.5098 289.665 70.5727 290.07 70.5466 290.564ZM149.351 306.063C149.297 306.338 149.064 306.434 148.775 306.271C148.431 306.024 148.445 305.956 148.87 305.79C149.144 305.666 149.377 305.569 149.412 305.576C149.412 305.576 149.405 305.788 149.351 306.063ZM150.995 307.314C151.236 307.54 151.305 307.732 151.099 307.692C150.927 307.658 150.549 307.405 150.308 307.179C150.067 306.953 150.033 306.768 150.204 306.802C150.41 306.843 150.754 307.089 150.995 307.314ZM63.0782 290.091C63.0646 290.16 62.5714 290.49 61.9616 290.869L60.8378 291.504L61.8513 290.705C62.8103 290.002 63.1323 289.816 63.0782 290.091ZM153.589 309.538C153.465 309.621 153.211 309.463 153.018 309.176C152.777 308.771 152.818 308.744 153.258 309.045C153.581 309.215 153.712 309.455 153.589 309.538ZM70.2866 293.331C70.2663 293.434 70.0951 293.579 69.8688 293.641C69.6768 293.71 69.5187 293.608 69.5525 293.436C69.5931 293.23 69.7986 293.092 69.9703 293.126C70.1763 293.166 70.3001 293.262 70.2866 293.331ZM67.4084 294.904C67.1139 295.131 66.8122 295.214 66.7503 295.166C66.6192 294.926 67.2628 294.376 67.6062 294.443C67.7778 294.477 67.7029 294.676 67.4084 294.904ZM64.566 297.019C64.3199 297.362 63.8954 297.707 63.6279 297.797C63.3538 297.921 63.3397 297.811 63.5723 297.536C64.5438 296.408 65.4553 295.945 64.566 297.019ZM57.349 295.632C57.3152 295.803 57.1097 295.941 56.9036 295.9C56.732 295.867 56.6971 295.681 56.834 295.53C56.9776 295.344 57.1763 295.241 57.2794 295.261C57.348 295.275 57.3896 295.426 57.349 295.632ZM56.275 296.918C56.1179 297.172 56.0352 297.049 56.1096 296.671C56.1498 296.287 56.2934 296.101 56.3693 296.259C56.452 296.382 56.4254 296.698 56.275 296.918ZM107.366 307.346C107.209 307.6 107.126 307.477 107.201 307.099C107.241 306.715 107.384 306.529 107.46 306.687C107.543 306.81 107.516 307.126 107.366 307.346ZM104.624 311.121L103.651 311.714L104.486 310.916C104.924 310.503 105.37 310.234 105.425 310.316C105.508 310.439 105.117 310.791 104.624 311.121ZM178.832 324.787C178.709 324.869 178.393 324.843 178.173 324.692C177.919 324.535 178.042 324.452 178.42 324.527C178.804 324.567 178.99 324.711 178.832 324.787ZM180.613 325.887C180.359 325.908 179.947 325.827 179.755 325.717C179.535 325.567 179.72 325.532 180.2 325.627C180.681 325.722 180.839 325.824 180.613 325.887ZM53.7849 302.312C53.6142 302.635 53.5862 302.416 53.6945 301.867C53.8095 301.283 53.9256 301.056 53.988 301.282C54.0092 301.536 53.9145 302.017 53.7849 302.312ZM59.0803 306.21C58.9096 306.533 58.8816 306.313 58.9899 305.764C59.1049 305.18 59.221 304.953 59.2834 305.18C59.3047 305.434 59.2099 305.914 59.0803 306.21ZM60.386 306.824C60.2153 307.147 60.1873 306.927 60.2956 306.378C60.4106 305.794 60.5267 305.567 60.5891 305.794C60.6104 306.048 60.5156 306.528 60.386 306.824ZM197.044 333.727C196.921 333.81 196.605 333.783 196.385 333.633C196.131 333.476 196.254 333.393 196.632 333.467C197.016 333.507 197.202 333.651 197.044 333.727ZM198.549 334.416C198.296 334.437 197.884 334.356 197.691 334.247C197.471 334.096 197.656 334.062 198.137 334.156C198.618 334.251 198.776 334.354 198.549 334.416ZM284.806 351.74C284.682 351.823 284.367 351.796 284.147 351.646C283.892 351.489 284.015 351.406 284.393 351.481C284.778 351.521 284.963 351.664 284.806 351.74ZM58.9887 310.294C58.8383 310.514 58.8035 310.328 58.8982 309.848C58.993 309.367 59.0955 309.209 59.1579 309.435C59.1792 309.689 59.098 310.101 58.9887 310.294ZM217.564 340.554C217.55 340.623 217.276 340.747 216.947 340.789C216.652 340.838 216.521 340.776 216.665 340.591C216.938 340.288 217.618 340.279 217.564 340.554ZM59.9636 310.414C60.0327 310.606 59.9302 310.765 59.7586 310.731C59.5526 310.69 59.4147 310.485 59.4486 310.313C59.4892 310.107 59.5849 309.983 59.6536 309.997C59.7566 310.017 59.9012 310.188 59.9636 310.414ZM264.35 350.561C264.227 350.644 263.911 350.618 263.691 350.467C263.437 350.31 263.56 350.227 263.938 350.302C264.322 350.342 264.508 350.486 264.35 350.561ZM255.927 349.686C255.57 349.687 255.171 349.537 255.006 349.29C254.84 349.044 255.053 349.05 255.685 349.281C256.372 349.595 256.428 349.677 255.927 349.686ZM65.1468 313.434C65.0235 313.516 64.7077 313.49 64.4876 313.339C64.2333 313.182 64.3566 313.1 64.7343 313.174C65.1187 313.214 65.3044 313.358 65.1468 313.434Z" fill="black"/>
<path d="M231.015 106.757C228.074 107.747 227.307 108.381 226.941 110.235C226.698 111.471 226.788 111.916 227.539 112.813C228.055 113.45 228.839 113.997 229.457 114.119C230.968 114.417 235.61 112.942 236.458 111.897C237.553 110.507 237.665 109.031 236.755 107.675C235.618 106.024 233.998 105.74 231.015 106.757Z" fill="black"/>
<path d="M386.43 140.747C386.115 140.898 384.326 142.008 382.477 143.249C379.558 145.206 379.038 145.674 378.835 146.704C378.517 148.318 378.849 149.168 380.107 149.844C381.674 150.759 382.517 150.462 386.394 147.802C389.128 145.88 389.819 145.267 389.988 144.408C390.374 142.451 388.096 140.076 386.43 140.747Z" fill="black"/>
<path d="M400.954 143.788C399.65 144.066 399.226 144.589 398.895 146.271C398.712 147.198 399.002 147.897 400.677 150.439C401.738 152.111 402.999 153.857 403.453 154.268C405.07 155.835 407.916 154.791 408.369 152.49C408.532 151.666 408.131 150.803 406.181 147.85C404.83 145.836 403.398 144.056 402.93 143.892C402.47 143.694 401.585 143.663 400.954 143.788Z" fill="black"/>
<path d="M216.307 111.349C213.783 112.207 213.29 112.537 212.771 113.541C211.72 115.616 212.963 118.358 215.126 118.785C216.053 118.967 220.86 117.382 221.764 116.597C223.907 114.773 222.826 111.029 220.045 110.48C219.598 110.392 217.918 110.774 216.307 111.349Z" fill="black"/>
<path d="M144.385 100.916C143.24 101.118 142.2 102.233 141.956 103.469C141.78 104.361 142.16 105.15 144.351 108.328C147.059 112.322 147.561 112.67 149.495 112.089C150.702 111.756 151.126 111.233 151.424 109.722C151.593 108.864 151.193 108 149.236 105.082C146.81 101.465 145.867 100.637 144.385 100.916Z" fill="black"/>
<path d="M168.432 105.585C168.007 105.572 166.081 106.655 164.108 107.978C161.135 110.032 160.519 110.624 160.343 111.517C160.221 112.135 160.21 112.917 160.348 113.301C160.598 114.206 162.241 115.279 163.291 115.201C163.723 115.179 165.724 114.075 167.704 112.718C170.594 110.72 171.334 110.045 171.496 109.221C171.875 107.298 170.519 105.675 168.432 105.585Z" fill="black"/>
<path d="M204.321 115.513C203.106 115.524 198.89 117.011 198.185 117.692C197.042 118.787 196.896 120.791 197.799 122.182C198.909 123.792 200.22 124.014 203.34 123.024C206.453 122.069 207.227 121.401 207.634 119.519C208.06 117.356 206.566 115.528 204.321 115.513Z" fill="black"/>
<path d="M186.835 120.983C183.784 121.987 183.27 122.242 182.73 122.992C181.752 124.333 181.729 125.719 182.576 127.028C183.713 128.679 185.265 128.949 188.275 127.973C191.361 126.976 192.087 126.37 192.501 124.633C192.765 123.472 192.64 123.019 191.876 122.013C190.719 120.465 189.345 120.194 186.835 120.983Z" fill="black"/>
<path d="M145.093 121.03C144.688 121.092 142.824 122.223 140.961 123.532C138.118 125.469 137.502 126.061 137.319 126.988C137.055 128.327 138.324 130.396 139.594 130.646C141.139 130.951 148.154 126.306 148.459 124.761C148.736 123.353 148.239 122.078 147.221 121.449C146.135 120.807 146.101 120.8 145.093 121.03Z" fill="black"/>
<path d="M159.822 123.934C158.676 124.136 157.636 125.25 157.393 126.486C157.217 127.379 157.596 128.167 159.788 131.346C161.359 133.689 162.633 135.188 163.079 135.276C164.246 135.506 165.583 135.057 166.178 134.211C167.354 132.588 167.181 131.84 164.679 128.065C162.26 124.414 161.31 123.621 159.822 123.934Z" fill="black"/>
<path d="M47.1286 186.075C46.0589 186.435 45.2181 187.625 45.1804 188.902C45.1485 189.787 47.1213 193.35 48.8221 195.398C50.4611 197.397 52.0545 197.818 53.5337 196.648C55.3896 195.194 55.229 194.2 52.5686 190.144C49.9566 186.205 48.9937 185.48 47.1286 186.075Z" fill="black"/>
<path d="M70.6967 190.828C69.0308 191.499 64.4689 194.737 63.8814 195.727C63.1503 196.902 63.4502 198.638 64.592 199.541C65.9814 200.635 67.408 200.274 71.114 197.759C74.1145 195.746 74.4225 195.451 74.6729 194.18C75.1535 191.742 73.014 189.93 70.6967 190.828Z" fill="black"/>
<path d="M47.6721 206.3C45.9375 206.956 41.4921 210.146 40.8292 211.157C40.0778 212.436 40.5842 214.39 41.8972 215.149C43.2996 215.996 44.7121 215.525 48.2126 213.148C51.9254 210.598 52.5946 209.374 51.2714 207.402C50.3066 205.963 49.2969 205.657 47.6721 206.3Z" fill="black"/>
<path d="M62.6008 209.1C61.3048 209.522 60.3547 210.904 60.5777 212.125C60.7804 213.449 64.5367 219.183 65.6228 219.825C66.826 220.597 68.9112 220.152 69.6012 219.004C70.5784 217.485 70.2321 216.347 67.6825 212.634C65.1053 208.88 64.5414 208.483 62.6008 209.1Z" fill="black"/>
<path d="M396.837 293.32C395.013 293.71 393.597 295.642 393.74 297.632C393.827 299.361 399.905 308.157 401.396 308.736C403.677 309.649 406.206 308.222 406.7 305.715C407.018 304.102 406.838 303.745 403.289 298.409C400.091 293.641 399.135 292.882 396.837 293.32Z" fill="black"/>
<path d="M73.5251 250.667C73.3883 250.818 73.4231 251.003 73.5948 251.037C73.8008 251.078 74.0063 250.94 74.0402 250.768C74.0808 250.562 74.0392 250.412 73.9705 250.398C73.8675 250.378 73.6687 250.481 73.5251 250.667Z" fill="black"/>
<path d="M398.014 321.73C397.088 321.904 388.772 327.363 388.026 328.25C387.027 329.516 386.868 331.589 387.73 333.007C388.427 334.179 388.743 334.384 390.219 334.675C391.867 335 392.059 334.931 394.711 333.242C396.225 332.256 398.568 330.685 399.896 329.734C402.061 328.164 402.341 327.827 402.605 326.487C402.937 324.805 402.501 323.578 401.236 322.579C400.245 321.813 399.16 321.528 398.014 321.73Z" fill="black"/>
<path d="M361.628 344.734C358.076 345.924 356.892 346.867 356.471 348.818C356.025 351.084 358.049 353.48 360.265 353.275C361.679 353.161 365.051 351.615 365.879 350.672C367.515 348.89 366.992 345.934 364.847 344.869C363.294 344.063 363.541 344.076 361.628 344.734Z" fill="black"/>
<path d="M346.371 352.106C343.759 353.053 343.17 353.508 342.563 354.958C342.018 356.277 342.123 357.189 343.04 358.511C343.591 359.333 344.1 359.648 345.267 359.878C346.709 360.162 347.265 360.058 350.295 358.8C353.01 357.695 353.721 354.446 351.671 352.544C350.315 351.278 348.983 351.158 346.371 352.106Z" fill="black"/>
<path d="M332.58 356.021C330.076 356.42 328.905 357.116 328.154 358.573C327.096 360.683 328.359 363.322 330.659 363.775C331.895 364.019 335.676 363.48 336.683 362.894C337.046 362.68 337.655 361.944 338.037 361.27C338.85 359.683 338.57 358.023 337.27 356.839C336.093 355.751 335.125 355.596 332.58 356.021Z" fill="black"/>
<path d="M318.64 358.517C316.102 358.73 315.402 359.02 314.363 360.313C313.029 362.012 313.612 364.481 315.744 365.793C316.885 366.517 321.359 366.258 322.743 365.389C324.771 364.148 324.989 361.052 323.207 359.417C322.092 358.377 321.543 358.269 318.64 358.517Z" fill="black"/>
<path d="M302.953 359.027C299.68 359.345 298.119 363.103 300.301 365.424C301.244 366.43 305.083 367.223 307.086 366.833C309.987 366.228 311.115 362.134 308.866 360.335C307.903 359.61 304.62 358.892 302.953 359.027Z" fill="black"/>
<path d="M286.265 357.735C283.825 359.073 283.602 362.56 285.871 364.078C288.298 365.698 292.485 365.81 293.86 364.262C295.263 362.755 295.382 361.244 294.279 359.6C293.37 358.244 293.274 358.189 290.424 357.627C287.78 357.106 287.382 357.135 286.265 357.735Z" fill="black"/>
<path d="M130.088 328.874C128.977 329.083 127.719 330.762 127.777 331.914C127.828 333.102 131.633 338.952 132.891 339.807C134.754 341.03 137.571 339.409 137.448 337.138C137.404 336.095 133.84 330.47 132.636 329.519C131.68 328.76 131.24 328.638 130.088 328.874Z" fill="black"/>
<path d="M153.452 333.766C151.635 334.478 146.799 338.019 146.363 338.967C145.401 340.953 147.178 343.336 149.408 343.063C150.649 342.915 156.041 339.448 157.04 338.182C158.811 335.892 156.194 332.701 153.452 333.766Z" fill="black"/>
<path d="M130.433 349.202C128.65 349.921 123.78 353.455 123.35 354.369C122.429 356.328 124.399 358.82 126.574 358.464C127.788 358.276 132.899 354.967 133.849 353.764C135.785 351.363 133.326 348.096 130.433 349.202Z" fill="black"/>
<path d="M145.403 351.975C144.196 352.308 143.136 353.704 143.222 354.898C143.26 356.154 146.899 361.758 148.226 362.626C150.365 364.082 153.29 362.268 152.81 359.82C152.678 359.223 151.622 357.338 150.465 355.612C148.204 352.242 147.111 351.455 145.403 351.975Z" fill="black"/>
</g>
</svg>
