<svg width="22" height="22" viewBox="0 0 22 22" fill="none" xmlns="http://www.w3.org/2000/svg">
<path d="M19.25 17.8747H19.6428C19.9321 17.8747 20.1666 17.6402 20.1666 17.3509C20.1666 16.1978 19.5457 15.1898 18.6199 14.6429M17.4635 4.52049C18.2596 5.00229 18.7916 5.87643 18.7916 6.87484C18.7916 7.87325 18.2596 8.74739 17.4635 9.22919M3.38461 14.6402C2.45632 15.1865 1.83331 16.1959 1.83331 17.3509C1.83331 17.6402 2.06783 17.8747 2.35712 17.8747H2.74998M4.54058 4.51797C3.74223 4.99924 3.20831 5.87469 3.20831 6.87484C3.20831 7.87282 3.73991 8.74663 4.53539 9.22856M7.07141 18.3333H14.9286C15.2902 18.3333 15.5833 18.0401 15.5833 17.6785C15.5833 15.5088 13.8244 13.7499 11.6547 13.7499H10.3452C8.17553 13.7499 6.41665 15.5088 6.41665 17.6785C6.41665 18.0401 6.70979 18.3333 7.07141 18.3333ZM14.2083 6.87484C14.2083 8.64675 12.7719 10.0832 11 10.0832C9.22807 10.0832 7.79165 8.64675 7.79165 6.87484C7.79165 5.10292 9.22807 3.6665 11 3.6665C12.7719 3.6665 14.2083 5.10292 14.2083 6.87484Z" stroke="#929292" stroke-width="1.5" stroke-linecap="round" stroke-linejoin="round"/>
</svg>
