<svg width="22" height="22" viewBox="0 0 22 22" fill="none" xmlns="http://www.w3.org/2000/svg">
<path d="M7.33331 10.9997C7.33331 11.2528 7.12811 11.458 6.87498 11.458C6.62185 11.458 6.41665 11.2528 6.41665 10.9997M7.33331 10.9997C7.33331 10.7465 7.12811 10.5413 6.87498 10.5413C6.62185 10.5413 6.41665 10.7465 6.41665 10.9997M7.33331 10.9997H6.41665M11.4583 10.9997C11.4583 11.2528 11.2531 11.458 11 11.458C10.7468 11.458 10.5416 11.2528 10.5416 10.9997M11.4583 10.9997C11.4583 10.7465 11.2531 10.5413 11 10.5413C10.7468 10.5413 10.5416 10.7465 10.5416 10.9997M11.4583 10.9997H10.5416M15.5833 10.9997C15.5833 11.2528 15.3781 11.458 15.125 11.458C14.8718 11.458 14.6666 11.2528 14.6666 10.9997M15.5833 10.9997C15.5833 10.7465 15.3781 10.5413 15.125 10.5413C14.8718 10.5413 14.6666 10.7465 14.6666 10.9997M15.5833 10.9997H14.6666M4.51817 4.51786C8.09797 0.938056 13.902 0.938056 17.4818 4.51786C21.0616 8.09767 21.0616 13.9017 17.4818 17.4815C14.5267 20.4365 10.0561 20.9523 6.57201 19.0286L3.28787 19.8171C2.6223 19.9769 2.02274 19.3774 2.18253 18.7118L2.97101 15.4276C1.04739 11.9436 1.56311 7.47292 4.51817 4.51786Z" stroke="black" stroke-opacity="0.9" stroke-width="1.5" stroke-linecap="round" stroke-linejoin="round"/>
</svg>
