<svg width="22" height="22" viewBox="0 0 22 22" fill="none" xmlns="http://www.w3.org/2000/svg">
<path d="M14.4375 2.75016H15.5833C17.1021 2.75016 18.3333 3.98138 18.3333 5.50016V17.4168C18.3333 18.9356 17.1021 20.1668 15.5833 20.1668H6.41663C4.89784 20.1668 3.66663 18.9356 3.66663 17.4168V5.50016C3.66663 3.98138 4.89784 2.75016 6.41663 2.75016H7.56246M11 9.17141L14.6666 9.16225M11 12.8381L14.6666 12.8289M11 16.5047L14.6666 16.4956M7.33329 16.5002V16.5093M7.33329 12.8335V12.8427M7.33329 9.16683V9.176M7.79163 5.04183H14.2083C14.4614 5.04183 14.6666 4.83663 14.6666 4.5835V3.66683C14.6666 2.65431 13.8458 1.8335 12.8333 1.8335H9.16663C8.1541 1.8335 7.33329 2.65431 7.33329 3.66683V4.5835C7.33329 4.83663 7.5385 5.04183 7.79163 5.04183ZM7.56246 16.5002C7.56246 16.6267 7.45986 16.7293 7.33329 16.7293C7.20673 16.7293 7.10413 16.6267 7.10413 16.5002C7.10413 16.3736 7.20673 16.271 7.33329 16.271C7.45986 16.271 7.56246 16.3736 7.56246 16.5002ZM7.56246 12.8335C7.56246 12.9601 7.45986 13.0627 7.33329 13.0627C7.20673 13.0627 7.10413 12.9601 7.10413 12.8335C7.10413 12.7069 7.20673 12.6043 7.33329 12.6043C7.45986 12.6043 7.56246 12.7069 7.56246 12.8335ZM7.56246 9.16683C7.56246 9.29339 7.45986 9.396 7.33329 9.396C7.20673 9.396 7.10413 9.29339 7.10413 9.16683C7.10413 9.04026 7.20673 8.93766 7.33329 8.93766C7.45986 8.93766 7.56246 9.04026 7.56246 9.16683Z" stroke="#929292" stroke-width="1.5" stroke-linecap="round" stroke-linejoin="round"/>
</svg>
