<svg width="14" height="22" viewBox="0 0 14 22" fill="none" xmlns="http://www.w3.org/2000/svg">
<path d="M7.75 18.5C8.16421 18.5 8.5 18.1642 8.5 17.75C8.5 17.3358 8.16421 17 7.75 17V17.75V18.5ZM5.75 17C5.33579 17 5 17.3358 5 17.75C5 18.1642 5.33579 18.5 5.75 18.5V17.75V17ZM3.75 0.75V1.5H9.75V0.75V0H3.75V0.75ZM12.75 3.75H12V17.75H12.75H13.5V3.75H12.75ZM9.75 20.75V20H3.75V20.75V21.5H9.75V20.75ZM0.75 17.75H1.5V3.75H0.75H0V17.75H0.75ZM3.75 20.75V20C2.50736 20 1.5 18.9926 1.5 17.75H0.75H0C0 19.8211 1.67893 21.5 3.75 21.5V20.75ZM12.75 17.75H12C12 18.9926 10.9926 20 9.75 20V20.75V21.5C11.8211 21.5 13.5 19.8211 13.5 17.75H12.75ZM9.75 0.75V1.5C10.9926 1.5 12 2.50736 12 3.75H12.75H13.5C13.5 1.67893 11.8211 0 9.75 0V0.75ZM3.75 0.75V0C1.67893 0 0 1.67893 0 3.75H0.75H1.5C1.5 2.50736 2.50736 1.5 3.75 1.5V0.75ZM7.75 17.75V17H5.75V17.75V18.5H7.75V17.75Z" fill="black" fill-opacity="0.9"/>
</svg>
