<svg width="22" height="22" viewBox="0 0 22 22" fill="none" xmlns="http://www.w3.org/2000/svg">
<path d="M4.125 5.04232L5.13621 16.1657C5.26463 17.5782 5.32884 18.2845 5.64518 18.8187C5.92378 19.2891 6.33627 19.6658 6.82996 19.9006C7.39055 20.1673 8.09975 20.1673 9.51814 20.1673H12.4819C13.9003 20.1673 14.6095 20.1673 15.17 19.9006C15.6637 19.6658 16.0762 19.2891 16.3548 18.8187C16.6712 18.2845 16.7354 17.5782 16.8638 16.1657L17.875 5.04232M8.70833 10.084V14.6673M13.2917 10.084V14.6673M6.41667 5.04232L7.40543 3.31198C7.71303 2.77368 7.86683 2.50453 8.08294 2.30872C8.27415 2.13547 8.49978 2.00453 8.74506 1.92447C9.0223 1.83398 9.33229 1.83398 9.95228 1.83398H12.0477C12.6677 1.83398 12.9777 1.83398 13.2549 1.92447C13.5002 2.00453 13.7258 2.13547 13.9171 2.30872C14.1332 2.50453 14.287 2.77368 14.5946 3.31198L15.5833 5.04232M6.41667 5.04232H2.75M6.41667 5.04232H15.5833M15.5833 5.04232H19.25" stroke="#DD362F" stroke-width="1.5" stroke-linecap="round" stroke-linejoin="round"/>
</svg>
