<svg width="402" height="365" viewBox="0 0 402 365" fill="none" xmlns="http://www.w3.org/2000/svg">
<g opacity="0.15" clip-path="url(#clip0_1_656)">
<path d="M133.897 190.496C137.13 176.474 150.458 163.565 154.701 160.028C179.873 139.76 183.79 103.054 163.522 77.8818C143.255 52.7093 106.354 48.7749 81.182 69.0425C56.0095 89.3101 52.0751 126.21 72.3427 151.383L73.5806 152.868C77.1353 156.916 87.9239 172.012 88.5637 186.581C88.5647 190.895 88.5656 195.209 88.0008 199.276L131.955 203.262C132.538 199 133.12 194.739 133.897 190.496Z" fill="#D5FF9B"/>
<path d="M131.797 207.169L87.648 203.166C86.6756 203.077 85.7384 202.6 85.031 201.752C84.3236 200.903 84.0228 199.895 84.111 198.923C84.4813 194.839 84.6572 190.737 84.6386 186.617C84.0346 173.817 74.3248 159.798 70.6109 155.344L69.3729 153.859C58.7793 140.937 53.9842 124.619 55.8899 107.928C57.7957 91.2369 65.8016 76.4718 78.7237 65.8783C91.6457 55.2847 107.964 50.4896 124.655 52.3953C141.169 54.0889 156.111 62.307 166.704 75.229C177.298 88.1511 182.093 104.469 180.187 121.16C178.493 137.674 170.275 152.616 157.353 163.209C153.128 166.552 140.843 178.772 137.929 191.45C137.169 195.499 136.41 199.548 136.234 203.65C136.146 204.622 135.669 205.559 134.82 206.267C133.777 206.956 132.77 207.257 131.797 207.169ZM92.2433 195.739L128.613 199.037C128.895 195.925 129.566 192.848 130.043 189.754C134.212 171.896 151.995 157.429 152.207 157.252C163.627 148.091 170.696 135.006 172.213 120.437C173.73 105.868 169.537 91.5652 160.358 80.3401C151.197 68.9206 138.112 61.8513 123.543 60.3341C109.186 58.64 94.883 62.8336 83.6579 72.0123C72.2384 81.1734 65.1691 94.2586 63.6519 108.828C62.1347 123.397 66.3282 137.699 75.5069 148.924L76.568 150.197C76.7449 150.409 91.6182 168.033 92.524 186.156C92.6132 189.497 92.5255 192.627 92.2433 195.739Z" fill="black"/>
<path d="M85.0903 229.21C83.3252 242.187 92.0268 254.35 105.129 256.91C118.265 256.925 129.207 246.544 129.823 233.266C130.705 223.541 131.321 212.42 132.168 203.085L88.0185 199.081C87.3664 208.434 85.9722 219.485 85.0903 229.21Z" fill="#B2DAF6"/>
<path d="M104.776 260.8L104.387 260.765C89.3401 258.028 79.2413 243.974 81.2004 228.857C81.6061 224.384 82.0294 219.716 82.6295 215.26C83.1233 209.814 83.8469 203.997 84.3054 198.941C84.3936 197.968 84.8708 197.031 85.7193 196.324C86.5678 195.616 87.5755 195.315 88.548 195.404L132.697 199.407C133.67 199.495 134.607 199.972 135.314 200.821C136.022 201.669 136.322 202.677 136.234 203.65C135.793 208.512 135.282 214.152 134.983 219.615C134.559 224.283 134.313 229.163 133.907 233.636C133.115 248.859 120.653 260.867 105.165 260.836L104.776 260.8ZM91.5378 203.518C91.1675 207.603 90.7795 211.881 90.2146 215.948C89.7913 220.616 89.1736 225.266 88.7855 229.545L88.7679 229.739C87.3913 240.595 94.5188 250.654 105.287 253.003C116.284 252.824 125.299 244.229 125.721 233.09C126.144 228.422 126.568 223.755 126.796 219.069C127.167 214.985 127.36 210.688 127.713 206.799L91.5378 203.518Z" fill="black"/>
<path d="M139.966 207.91L77.7291 202.266C75.5897 202.072 73.9981 200.163 74.1921 198.024C74.3861 195.884 76.2952 194.293 78.4346 194.487L140.671 200.13C142.811 200.324 144.402 202.233 144.208 204.373C144.014 206.512 142.105 208.104 139.966 207.91ZM130.74 223.153L86.0074 219.096C83.868 218.902 82.2764 216.993 82.4704 214.854C82.6644 212.714 84.5735 211.123 86.7129 211.317L131.446 215.373C133.585 215.567 135.177 217.476 134.983 219.615C134.789 221.755 132.879 223.347 130.74 223.153ZM129.453 237.35L84.72 233.294C82.5806 233.1 80.9889 231.191 81.1829 229.051C81.3769 226.912 83.286 225.32 85.4254 225.514L130.158 229.571C132.297 229.765 133.889 231.674 133.695 233.813C133.501 235.953 131.592 237.544 129.453 237.35Z" fill="black"/>
<path d="M102.235 204.488C100.095 204.294 98.5037 202.385 98.6977 200.246C98.733 199.857 101.306 164.99 102.735 149.237L101.763 149.148C96.9003 148.707 93.523 147.029 91.4184 144.289C89.473 141.955 88.7827 138.755 89.3123 135.077C89.789 131.983 91.9798 125.123 102.482 126.075C105.594 126.357 108.052 127.364 109.449 129.256C112.102 132.438 111.714 136.717 111.061 141.756L111.043 141.95L118.823 142.656L119.07 139.933C119.775 132.153 124.636 128.28 132.611 129.003C135.917 129.303 138.516 130.911 140.25 133.422C141.629 135.508 142.355 138.319 142.108 141.042C141.579 146.876 137.142 152.553 130.14 151.918L125.862 151.53L121.259 202.292C121.065 204.431 119.155 206.023 117.016 205.829C114.877 205.635 113.285 203.726 113.479 201.586L118.082 150.824L110.302 150.119C109.086 165.696 106.318 200.545 106.283 200.934C106.283 203.091 104.569 204.7 102.235 204.488ZM126.762 143.768L131.04 144.156C133.569 144.385 134.417 141.521 134.523 140.354C134.611 139.381 134.504 138.391 133.974 137.755C133.815 137.348 133.267 136.906 132.1 136.8C128.015 136.43 127.344 137.35 127.044 140.656L126.762 143.768ZM101.759 134.049C97.4804 133.661 97.3569 135.023 97.0213 136.561C96.8979 137.922 96.9866 139.107 97.5171 139.743C98.2245 140.592 100.117 141.352 102.45 141.563L103.423 141.651L103.44 141.457C103.67 138.929 104.005 135.233 103.474 134.597C103.297 134.385 102.926 134.155 101.759 134.049ZM74.5972 113.546C72.4578 113.352 70.8661 111.443 71.0602 109.303C73.2471 85.1866 94.884 67.1476 119.195 69.3521C121.335 69.5461 122.926 71.4553 122.732 73.5947C122.538 75.7341 120.629 77.3257 118.49 77.1317C98.4573 75.3152 80.6387 90.1709 78.8397 110.009C78.6457 112.148 76.7366 113.74 74.5972 113.546ZM30.643 111.717L17.4177 110.518C15.2783 110.324 13.6866 108.415 13.8806 106.275C14.0746 104.136 15.9838 102.544 18.1232 102.738L31.3485 103.937C33.4879 104.131 35.0795 106.041 34.8855 108.18C34.6915 110.319 32.7824 111.911 30.643 111.717ZM218.715 128.772L205.489 127.572C203.35 127.378 201.758 125.469 201.952 123.33C202.146 121.19 204.055 119.599 206.195 119.793L219.42 120.992C221.56 121.186 223.151 123.095 222.957 125.235C222.763 127.374 220.854 128.966 218.715 128.772ZM126.1 32.1331C123.96 31.9391 122.369 30.0299 122.563 27.8905L123.744 14.8597C123.938 12.7203 125.848 11.1286 127.987 11.3226C130.126 11.5167 131.718 13.4258 131.524 15.5652L130.325 28.7905C130.131 30.9299 128.239 32.3271 126.1 32.1331Z" fill="black"/>
<path d="M55.7719 55.169C54.7995 55.0809 53.8623 54.6037 53.1549 53.7552L44.6659 43.5731C43.2511 41.8761 43.4627 39.5422 45.1598 38.1274C46.8568 36.7126 49.1906 36.9242 50.6055 38.6212L59.0944 48.8033C60.5093 50.5003 60.2976 52.8342 58.6006 54.249C57.7521 54.9564 56.7444 55.2572 55.7719 55.169Z" fill="black"/>
<path d="M188.998 67.2501C188.025 67.1619 187.088 66.6847 186.381 65.8362C184.966 64.1392 185.177 61.8053 186.874 60.3905L197.056 51.9015C198.753 50.4867 201.087 50.6983 202.502 52.3954C203.917 54.0924 203.705 56.4262 202.008 57.8411L191.826 66.33C190.978 67.0374 189.97 67.3382 188.998 67.2501Z" fill="black"/>
</g>
<g opacity="0.15" clip-path="url(#clip1_1_656)">
<path d="M337.802 295.496C335.893 287.459 339.462 277.423 340.744 274.522C348.532 257.683 341.197 237.801 324.358 230.013C307.519 222.225 287.533 229.601 279.745 246.44C271.957 263.279 279.332 283.265 296.171 291.053L297.186 291.501C300.046 292.679 309.442 297.697 313.482 305.03C314.581 307.249 315.681 309.468 316.426 311.704L340.055 302.558C339.269 300.218 338.483 297.877 337.802 295.496Z" fill="#D5FF9B"/>
<path d="M340.968 304.609L317.235 313.795C316.712 313.997 316.109 313.991 315.529 313.734C314.949 313.478 314.537 313.036 314.335 312.513C313.485 310.318 312.531 308.163 311.472 306.048C307.9 299.616 299.334 294.877 296.289 293.532L295.274 293.083C286.532 289.133 279.909 281.96 276.638 272.887C273.367 263.815 273.724 254.179 277.674 245.438C281.624 236.696 288.797 230.073 297.87 226.802C306.797 223.467 316.578 223.889 325.319 227.838C334.061 231.788 340.684 238.962 343.955 248.034C347.291 256.961 346.869 266.742 342.919 275.483C341.597 278.279 338.389 287.695 340.119 294.96C340.76 297.237 341.4 299.513 342.355 301.668C342.557 302.191 342.55 302.795 342.294 303.375C341.933 303.995 341.491 304.407 340.968 304.609ZM317.707 308.804L337.259 301.236C336.611 299.564 336.173 297.81 335.63 296.096C333.226 285.847 338.69 273.875 338.754 273.73C342.295 266.108 342.599 257.575 339.669 249.693C336.738 241.811 330.938 235.521 323.356 232.084C315.734 228.543 307.202 228.239 299.32 231.169C291.502 233.955 285.212 239.755 281.775 247.337C278.234 254.959 277.93 263.491 280.86 271.373C283.791 279.255 289.591 285.545 297.173 288.982L298.043 289.367C298.188 289.431 310.329 294.709 315.411 303.802C316.308 305.498 317.06 307.131 317.707 308.804Z" fill="black"/>
<path d="M322.553 327.845C324.951 334.972 332.525 339.013 339.918 336.993C346.68 333.654 349.665 325.526 346.6 318.538C344.577 313.31 342.061 307.432 340.119 302.413L316.385 311.599C318.432 316.577 320.53 322.618 322.553 327.845Z" fill="#B2DAF6"/>
<path d="M340.728 339.084L340.518 339.165C332.08 341.589 323.305 336.931 320.462 328.655C319.531 326.25 318.56 323.741 317.734 321.296C316.601 318.368 315.491 315.191 314.439 312.473C314.237 311.95 314.244 311.346 314.5 310.766C314.756 310.186 315.198 309.775 315.721 309.573L339.454 300.387C339.977 300.184 340.581 300.191 341.161 300.447C341.741 300.704 342.152 301.146 342.355 301.668C343.366 304.282 344.54 307.314 345.777 310.201C346.749 312.71 347.865 315.284 348.796 317.688C352.266 325.722 348.913 335.074 340.937 339.003L340.728 339.084ZM319.326 312.986C320.176 315.181 321.066 317.481 321.811 319.718C322.783 322.227 323.649 324.776 324.54 327.077L324.58 327.181C326.637 333.117 332.866 336.476 339.004 334.942C344.616 332.049 347.065 325.331 344.445 319.492C343.474 316.983 342.502 314.474 341.427 312.005C340.577 309.81 339.582 307.55 338.773 305.459L319.326 312.986Z" fill="black"/>
<path d="M345.36 302.909L311.903 315.859C310.753 316.304 309.448 315.727 309.003 314.577C308.558 313.427 309.134 312.122 310.284 311.677L343.741 298.727C344.891 298.282 346.196 298.859 346.641 300.009C347.087 301.159 346.51 302.464 345.36 302.909ZM344.496 313.101L320.449 322.409C319.299 322.854 317.994 322.277 317.549 321.127C317.103 319.977 317.68 318.672 318.83 318.227L342.877 308.919C344.027 308.474 345.332 309.051 345.778 310.201C346.223 311.351 345.646 312.656 344.496 313.101ZM347.45 320.734L323.403 330.041C322.253 330.486 320.948 329.909 320.503 328.759C320.058 327.609 320.634 326.304 321.784 325.859L345.831 316.552C346.981 316.106 348.287 316.683 348.732 317.833C349.177 318.983 348.6 320.289 347.45 320.734Z" fill="black"/>
<path d="M325.077 310.76C323.927 311.205 322.621 310.628 322.176 309.478C322.095 309.269 314.538 290.676 311.26 282.207L310.737 282.409C308.124 283.421 305.958 283.418 304.178 282.544C302.583 281.839 301.412 280.369 300.748 278.342C300.205 276.628 299.585 272.541 305.231 270.356C306.903 269.708 308.424 269.6 309.625 270.218C311.8 271.179 312.691 273.479 313.638 276.238L313.679 276.342L317.861 274.724L317.294 273.26C315.675 269.078 317.19 265.847 321.477 264.188C323.254 263.5 325.001 263.665 326.532 264.515C327.773 265.237 328.862 266.498 329.429 267.962C330.643 271.099 329.806 275.149 326.043 276.606L323.742 277.496L334.304 304.784C334.749 305.934 334.173 307.239 333.023 307.685C331.872 308.13 330.567 307.553 330.122 306.403L319.56 279.115L315.378 280.733C318.72 289.057 326.173 307.691 326.254 307.9C326.803 309.01 326.331 310.274 325.077 310.76ZM322.228 273.274L324.528 272.383C325.888 271.857 325.594 270.168 325.351 269.54C325.149 269.018 324.842 268.535 324.407 268.343C324.222 268.174 323.827 268.087 323.2 268.329C321.004 269.179 320.893 269.823 321.581 271.601L322.228 273.274ZM306.89 274.642C304.59 275.533 304.873 276.264 305.092 277.141C305.375 277.873 305.723 278.46 306.158 278.652C306.738 278.909 307.905 278.818 309.159 278.332L309.682 278.13L309.642 278.025C309.115 276.666 308.347 274.679 307.912 274.487C307.767 274.423 307.517 274.399 306.89 274.642ZM287.693 271.013C286.543 271.458 285.238 270.881 284.793 269.731C279.775 256.766 286.311 241.975 299.38 236.916C300.531 236.471 301.836 237.048 302.281 238.198C302.726 239.348 302.149 240.653 300.999 241.098C290.23 245.266 284.847 257.448 288.975 268.112C289.42 269.262 288.843 270.567 287.693 271.013ZM264.614 281.268L257.504 284.019C256.354 284.465 255.049 283.888 254.604 282.738C254.159 281.588 254.736 280.282 255.886 279.837L262.995 277.086C264.145 276.64 265.451 277.217 265.896 278.367C266.341 279.517 265.764 280.823 264.614 281.268ZM365.716 242.136L358.606 244.888C357.456 245.333 356.151 244.756 355.706 243.606C355.261 242.456 355.837 241.151 356.987 240.706L364.097 237.954C365.247 237.509 366.552 238.086 366.997 239.236C367.443 240.386 366.866 241.691 365.716 242.136ZM293.452 216.009C292.302 216.454 290.997 215.878 290.552 214.728L287.841 207.723C287.395 206.573 287.972 205.267 289.122 204.822C290.272 204.377 291.578 204.954 292.023 206.104L294.774 213.213C295.22 214.363 294.602 215.564 293.452 216.009Z" fill="black"/>
<path d="M263.138 245.774C262.615 245.977 262.012 245.97 261.432 245.714L254.471 242.638C253.311 242.125 252.825 240.87 253.338 239.71C253.85 238.55 255.105 238.064 256.265 238.577L263.226 241.653C264.386 242.166 264.872 243.42 264.359 244.581C264.103 245.161 263.661 245.572 263.138 245.774Z" fill="black"/>
<path d="M334.756 218.055C334.234 218.257 333.63 218.25 333.05 217.994C331.89 217.481 331.404 216.227 331.917 215.066L334.993 208.106C335.506 206.945 336.76 206.46 337.92 206.973C339.08 207.485 339.566 208.74 339.053 209.9L335.977 216.861C335.721 217.441 335.279 217.852 334.756 218.055Z" fill="black"/>
</g>
<g opacity="0.15" clip-path="url(#clip2_1_656)">
<path d="M308.517 98.4853C310.193 94.9149 314.511 92.2257 315.852 91.523C323.768 87.5466 326.939 77.9371 322.963 70.0207C318.986 62.1043 309.326 58.9178 301.409 62.8942C293.493 66.8707 290.306 76.5312 294.283 84.4476L294.529 84.9171C295.247 86.2072 297.266 90.876 296.595 94.8168C296.346 95.9728 296.097 97.1289 295.711 98.186L307.259 101.794C307.661 100.686 308.064 99.5775 308.517 98.4853Z" fill="#D5FF9B"/>
<path d="M306.991 102.832L295.392 99.2079C295.136 99.1281 294.913 98.9461 294.772 98.6778C294.632 98.4096 294.609 98.1222 294.689 97.8667C295.024 96.7936 295.308 95.7046 295.542 94.5997C296.119 91.1347 294.327 86.8172 293.59 85.4089L293.344 84.9395C291.252 80.8647 290.91 76.215 292.385 71.8526C293.86 67.4902 296.858 63.9963 300.933 61.9043C305.008 59.8122 309.658 59.4702 314.02 60.9453C318.347 62.3534 321.876 65.4189 323.968 69.4937C326.06 73.5684 326.402 78.2182 324.927 82.5806C323.519 86.9079 320.454 90.4369 316.379 92.5289C315.054 93.1805 311.056 95.7451 309.542 98.9738C309.105 100.015 308.667 101.056 308.383 102.145C308.303 102.401 308.121 102.624 307.853 102.765C307.534 102.889 307.246 102.912 306.991 102.832ZM297.052 97.4833L306.607 100.469C306.863 99.651 307.22 98.8654 307.527 98.0638C309.676 93.5193 315.277 90.6704 315.344 90.6352C318.934 88.8402 321.584 85.7424 322.832 81.9261C324.081 78.1097 323.783 74.0348 321.973 70.4966C320.178 66.9072 317.08 64.2568 313.263 63.0084C309.514 61.7248 305.439 62.0221 301.901 63.8331C298.312 65.628 295.661 68.7259 294.413 72.5422C293.164 76.3586 293.462 80.4334 295.273 83.9717L295.483 84.3741C295.518 84.4412 298.486 90.0232 297.681 94.9317C297.512 95.8322 297.308 96.6658 297.052 97.4833Z" fill="black"/>
<path d="M293.201 106.039C291.978 109.415 293.607 113.176 296.97 114.62C300.489 115.383 304.021 113.233 304.954 109.711C305.752 107.156 306.56 104.211 307.326 101.759L295.727 98.1349C295.012 100.604 294 103.484 293.201 106.039Z" fill="#B2DAF6"/>
<path d="M296.651 115.642L296.549 115.61C292.675 114.007 290.781 109.657 292.179 105.72C292.547 104.544 292.93 103.318 293.348 102.159C293.795 100.728 294.325 99.2112 294.74 97.8827C294.82 97.6272 295.002 97.4036 295.27 97.2631C295.538 97.1226 295.826 97.1002 296.081 97.18L307.68 100.804C307.936 100.884 308.159 101.066 308.3 101.334C308.44 101.602 308.463 101.89 308.383 102.145C307.984 103.423 307.521 104.904 307.125 106.351C306.742 107.577 306.394 108.871 306.027 110.046C304.935 114.079 300.902 116.577 296.753 115.674L296.651 115.642ZM296.414 99.5272C296.078 100.6 295.727 101.724 295.341 102.781C294.958 104.008 294.523 105.218 294.172 106.342L294.156 106.393C293.16 109.223 294.489 112.33 297.238 113.582C300.196 114.169 303.108 112.387 303.865 109.427C304.248 108.2 304.631 106.974 304.963 105.732C305.298 104.659 305.598 103.518 305.918 102.497L296.414 99.5272Z" fill="black"/>
<path d="M309.137 103.502L292.786 98.3937C292.224 98.2181 291.907 97.6146 292.083 97.0525C292.259 96.4905 292.862 96.1743 293.424 96.3499L309.775 101.458C310.337 101.634 310.654 102.238 310.478 102.8C310.302 103.362 309.699 103.678 309.137 103.502ZM305.784 107.054L294.032 103.382C293.469 103.206 293.153 102.603 293.329 102.041C293.504 101.479 294.108 101.162 294.67 101.338L306.422 105.01C306.984 105.185 307.301 105.789 307.125 106.351C306.949 106.913 306.346 107.229 305.784 107.054ZM304.618 110.784L292.866 107.112C292.304 106.936 291.988 106.333 292.163 105.771C292.339 105.209 292.943 104.893 293.505 105.068L305.257 108.74C305.819 108.915 306.135 109.519 305.96 110.081C305.784 110.643 305.181 110.959 304.618 110.784Z" fill="black"/>
<path d="M299.224 100.405C298.662 100.23 298.346 99.6261 298.521 99.064C298.553 98.9618 301.258 89.7675 302.551 85.6287L302.295 85.5489C301.018 85.1498 300.21 84.5047 299.804 83.6489C299.418 82.9112 299.418 82.0138 299.772 81.059C300.079 80.2574 301.062 78.5456 303.821 79.4077C304.639 79.6631 305.239 80.075 305.504 80.6626C306.031 81.6685 305.68 82.7926 305.214 84.1052L305.198 84.1563L307.242 84.7949L307.465 84.0795C308.104 82.0356 309.63 81.2787 311.725 81.9332C312.594 82.2046 313.198 82.7858 313.517 83.5586C313.766 84.1972 313.798 84.9924 313.575 85.7078C313.096 87.2407 311.579 88.5054 309.739 87.9307L308.615 87.5795L304.449 100.916C304.273 101.478 303.67 101.794 303.107 101.619C302.545 101.443 302.229 100.839 302.405 100.277L306.571 86.9409L304.528 86.3024C303.302 90.4061 300.546 99.5844 300.514 99.6866C300.39 100.265 299.837 100.597 299.224 100.405ZM309.305 85.5516L310.429 85.9028C311.093 86.1103 311.486 85.3918 311.582 85.0852C311.662 84.8297 311.69 84.5582 311.585 84.3571C311.566 84.2389 311.445 84.0888 311.138 83.993C310.065 83.6578 309.832 83.8654 309.56 84.734L309.305 85.5516ZM303.167 81.5026C302.043 81.1514 301.931 81.5091 301.752 81.9019C301.64 82.2596 301.596 82.5821 301.701 82.7833C301.842 83.0516 302.305 83.3645 302.918 83.5561L303.173 83.6359L303.189 83.5848C303.397 82.9205 303.7 81.9497 303.595 81.7485C303.56 81.6814 303.473 81.5984 303.167 81.5026ZM297.073 74.439C296.511 74.2634 296.195 73.6599 296.37 73.0978C298.35 66.7618 305.19 63.1782 311.577 65.1737C312.139 65.3493 312.456 65.9529 312.28 66.5149C312.104 67.077 311.501 67.3932 310.939 67.2176C305.676 65.5733 300.043 68.5245 298.414 73.7364C298.239 74.2984 297.635 74.6146 297.073 74.439ZM285.401 71.4092L281.926 70.3236C281.364 70.148 281.048 69.5444 281.223 68.9824C281.399 68.4203 282.003 68.1041 282.565 68.2797L286.039 69.3653C286.601 69.5409 286.918 70.1444 286.742 70.7065C286.566 71.2686 285.963 71.5848 285.401 71.4092ZM334.812 86.8465L331.337 85.7609C330.775 85.5853 330.459 84.9817 330.634 84.4197C330.81 83.8576 331.413 83.5414 331.976 83.717L335.45 84.8026C336.012 84.9782 336.328 85.5817 336.153 86.1438C335.977 86.7059 335.374 87.0221 334.812 86.8465ZM315.578 55.5993C315.016 55.4237 314.7 54.8202 314.876 54.2581L315.945 50.8346C316.121 50.2725 316.724 49.9563 317.286 50.1319C317.848 50.3075 318.165 50.9111 317.989 51.4732L316.903 54.9478C316.728 55.5098 316.14 55.7749 315.578 55.5993Z" fill="black"/>
<path d="M295.402 57.7084C295.146 57.6285 294.923 57.4465 294.782 57.1783L293.096 53.9593C292.815 53.4228 293.006 52.8097 293.543 52.5286C294.079 52.2476 294.692 52.4391 294.974 52.9756L296.66 56.1946C296.941 56.731 296.749 57.3442 296.213 57.6253C295.945 57.7658 295.657 57.7882 295.402 57.7084Z" fill="black"/>
<path d="M330.403 68.6438C330.148 68.5639 329.924 68.3819 329.784 68.1137C329.503 67.5772 329.694 66.964 330.231 66.683L333.45 64.9966C333.986 64.7155 334.599 64.9071 334.88 65.4436C335.161 65.9801 334.97 66.5932 334.433 66.8743L331.214 68.5607C330.946 68.7012 330.659 68.7236 330.403 68.6438Z" fill="black"/>
</g>
<defs>
<clipPath id="clip0_1_656">
<rect width="250.554" height="250.554" fill="white" transform="translate(3.12451) rotate(5.18147)"/>
</clipPath>
<clipPath id="clip1_1_656">
<rect width="143.837" height="143.837" fill="white" transform="translate(222 230.802) rotate(-21.1589)"/>
</clipPath>
<clipPath id="clip2_1_656">
<rect width="68.6826" height="68.6826" fill="white" transform="translate(284.482 39.883) rotate(17.3502)"/>
</clipPath>
</defs>
</svg>
